<svg xmlns="http://www.w3.org/2000/svg" width="740" height="350" viewBox="0 0 740 350" font-family="monospace,Arial,sans-serif">
  <defs>
    <marker id="arr" markerWidth="10" markerHeight="7" refX="10" refY="3.5" orient="auto">
      <polygon points="0 0, 10 3.5, 0 7" fill="#94a3b8"/>
    </marker>
  </defs>
  <!-- Background -->
  <rect width="740" height="350" fill="#ffffff" rx="8"/>

  <!-- Title -->
  <text x="370" y="28" text-anchor="middle" font-size="16" font-weight="bold" fill="#334155">Иерархия оптик в Haskell</text>

  <!-- Iso at top (green) -->
  <rect x="305" y="45" width="130" height="50" rx="8" fill="#14532d" stroke="#22c55e" stroke-width="2"/>
  <text x="370" y="66" text-anchor="middle" font-size="13" font-weight="bold" fill="#15803d">Iso</text>
  <text x="370" y="83" text-anchor="middle" font-size="10" fill="#15803d">s &#8596; a (изоморфизм)</text>

  <!-- Arrow from Iso to Lens -->
  <line x1="330" y1="95" x2="200" y2="130" stroke="#94a3b8" stroke-width="1.5" marker-end="url(#arr)"/>
  <!-- Arrow from Iso to Prism -->
  <line x1="410" y1="95" x2="540" y2="130" stroke="#94a3b8" stroke-width="1.5" marker-end="url(#arr)"/>

  <!-- Lens (blue) -->
  <rect x="100" y="130" width="200" height="60" rx="8" fill="#dbeafe" stroke="#1d4ed8" stroke-width="2"/>
  <text x="200" y="151" text-anchor="middle" font-size="13" font-weight="bold" fill="#1e40af">Lens</text>
  <text x="200" y="167" text-anchor="middle" font-size="10" fill="#1e40af">view, set, over</text>
  <text x="200" y="182" text-anchor="middle" font-size="9" fill="#94a3b8">типы-произведения (поля)</text>

  <!-- Prism (red/pink) -->
  <rect x="440" y="130" width="200" height="60" rx="8" fill="#4c0519" stroke="#be123c" stroke-width="2"/>
  <text x="540" y="151" text-anchor="middle" font-size="13" font-weight="bold" fill="#fda4af">Prism</text>
  <text x="540" y="167" text-anchor="middle" font-size="10" fill="#fda4af">preview, review</text>
  <text x="540" y="182" text-anchor="middle" font-size="9" fill="#94a3b8">типы-суммы (варианты)</text>

  <!-- Arrow from Lens to Traversal -->
  <line x1="240" y1="190" x2="310" y2="228" stroke="#94a3b8" stroke-width="1.5" marker-end="url(#arr)"/>
  <!-- Arrow from Prism to Traversal -->
  <line x1="500" y1="190" x2="430" y2="228" stroke="#94a3b8" stroke-width="1.5" marker-end="url(#arr)"/>

  <!-- Traversal (amber) -->
  <rect x="250" y="228" width="240" height="55" rx="8" fill="#422006" stroke="#b45309" stroke-width="2"/>
  <text x="370" y="249" text-anchor="middle" font-size="13" font-weight="bold" fill="#92400e">Traversal</text>
  <text x="370" y="265" text-anchor="middle" font-size="10" fill="#92400e">toListOf, traverseOf</text>
  <text x="370" y="279" text-anchor="middle" font-size="9" fill="#94a3b8">много фокусов (Traversable)</text>

  <!-- Arrow from Traversal to Fold -->
  <line x1="320" y1="283" x2="260" y2="305" stroke="#94a3b8" stroke-width="1.5" marker-end="url(#arr)"/>
  <!-- Arrow from Traversal to Setter -->
  <line x1="420" y1="283" x2="480" y2="305" stroke="#94a3b8" stroke-width="1.5" marker-end="url(#arr)"/>

  <!-- Fold (subtle) -->
  <rect x="170" y="305" width="140" height="32" rx="6" fill="#f1f5f9" stroke="#64748b" stroke-width="1.5"/>
  <text x="240" y="325" text-anchor="middle" font-size="11" fill="#64748b">Fold (только чтение)</text>

  <!-- Setter (subtle) -->
  <rect x="430" y="305" width="140" height="32" rx="6" fill="#f1f5f9" stroke="#64748b" stroke-width="1.5"/>
  <text x="500" y="325" text-anchor="middle" font-size="11" fill="#64748b">Setter (только запись)</text>

  <!-- Van Laarhoven box (purple, left) -->
  <rect x="20" y="45" width="270" height="70" rx="6" fill="#1e1b4b" stroke="#818cf8" stroke-width="1.5"/>
  <text x="155" y="67" text-anchor="middle" font-size="10" font-weight="bold" fill="#a5b4fc">Van Laarhoven (типы)</text>
  <text x="155" y="84" text-anchor="middle" font-size="9" fill="#818cf8">Lens s t a b = forall f.</text>
  <text x="155" y="100" text-anchor="middle" font-size="9" fill="#818cf8">(a -&gt; f b) -&gt; s -&gt; f t</text>

  <!-- Profunctor box (purple, right) -->
  <rect x="450" y="45" width="270" height="70" rx="6" fill="#1e1b4b" stroke="#818cf8" stroke-width="1.5"/>
  <text x="585" y="67" text-anchor="middle" font-size="10" font-weight="bold" fill="#a5b4fc">Profunctor (унификация)</text>
  <text x="585" y="84" text-anchor="middle" font-size="9" fill="#818cf8">type Optic p s t a b =</text>
  <text x="585" y="100" text-anchor="middle" font-size="9" fill="#818cf8">p a b -&gt; p s t</text>
</svg>