<svg xmlns="http://www.w3.org/2000/svg" width="900" height="500" viewBox="0 0 900 500" font-family="monospace,Arial,sans-serif">
  <rect width="900" height="500" fill="#ffffff" rx="8"/>
  <defs>
    <marker id="ab" markerWidth="10" markerHeight="7" refX="9" refY="3.5" orient="auto"><polygon points="0 0,10 3.5,0 7" fill="#5872c9"/></marker>
    <marker id="ag" markerWidth="10" markerHeight="7" refX="9" refY="3.5" orient="auto"><polygon points="0 0,10 3.5,0 7" fill="#3f9d77"/></marker>
    <marker id="av" markerWidth="10" markerHeight="7" refX="9" refY="3.5" orient="auto"><polygon points="0 0,10 3.5,0 7" fill="#8b6db5"/></marker>
    <marker id="ao" markerWidth="10" markerHeight="7" refX="9" refY="3.5" orient="auto"><polygon points="0 0,10 3.5,0 7" fill="#d9a441"/></marker>
  </defs>
  <text x="450" y="28" text-anchor="middle" font-size="16" font-weight="bold" fill="#0f172a">Full Optics Hierarchy (Profunctor Encoding)</text>
  <rect x="360" y="45" width="180" height="46" fill="#f7f8fa" stroke="#0f172a" stroke-width="1.5" rx="6"/>
  <text x="450" y="66" text-anchor="middle" font-size="13" fill="#0f172a">Iso</text>
  <text x="450" y="82" text-anchor="middle" font-size="10" fill="#8a93a3">forall p. Profunctor p =&gt;</text>
  <rect x="130" y="140" width="160" height="46" fill="#f7f8fa" stroke="#5872c9" stroke-width="1.5" rx="6"/>
  <text x="210" y="161" text-anchor="middle" font-size="13" fill="#5872c9">Lens</text>
  <text x="210" y="177" text-anchor="middle" font-size="10" fill="#8a93a3">forall p. Strong p =&gt;</text>
  <rect x="610" y="140" width="160" height="46" fill="#f7f8fa" stroke="#3f9d77" stroke-width="1.5" rx="6"/>
  <text x="690" y="161" text-anchor="middle" font-size="13" fill="#3f9d77">Prism</text>
  <text x="690" y="177" text-anchor="middle" font-size="10" fill="#8a93a3">forall p. Choice p =&gt;</text>
  <rect x="370" y="140" width="160" height="46" fill="#f7f8fa" stroke="#8b6db5" stroke-width="1.5" rx="6"/>
  <text x="450" y="161" text-anchor="middle" font-size="13" fill="#8b6db5">Grate</text>
  <text x="450" y="177" text-anchor="middle" font-size="10" fill="#8a93a3">forall p. Closed p =&gt;</text>
  <line x1="410" y1="91" x2="250" y2="138" stroke="#5872c9" stroke-width="1.5" marker-end="url(#ab)"/>
  <line x1="450" y1="91" x2="450" y2="138" stroke="#8b6db5" stroke-width="1.5" marker-end="url(#av)"/>
  <line x1="490" y1="91" x2="650" y2="138" stroke="#3f9d77" stroke-width="1.5" marker-end="url(#ag)"/>
  <rect x="240" y="245" width="180" height="46" fill="#f7f8fa" stroke="#d9a441" stroke-width="1.5" rx="6"/>
  <text x="330" y="266" text-anchor="middle" font-size="13" fill="#d9a441">Traversal</text>
  <text x="330" y="282" text-anchor="middle" font-size="10" fill="#8a93a3">forall p. Wander p =&gt;</text>
  <rect x="480" y="245" width="180" height="46" fill="#f7f8fa" stroke="#5872c9" stroke-width="1" rx="6" stroke-dasharray="4,2"/>
  <text x="570" y="266" text-anchor="middle" font-size="12" fill="#5872c9">AffineTraversal</text>
  <text x="570" y="282" text-anchor="middle" font-size="10" fill="#8a93a3">Strong + Choice</text>
  <line x1="240" y1="186" x2="305" y2="243" stroke="#d9a441" stroke-width="1.5" marker-end="url(#ao)"/>
  <line x1="640" y1="186" x2="395" y2="243" stroke="#d9a441" stroke-width="1.5" marker-end="url(#ao)"/>
  <line x1="210" y1="186" x2="500" y2="243" stroke="#5872c9" stroke-width="1" stroke-dasharray="4,2" marker-end="url(#ab)"/>
  <line x1="690" y1="186" x2="620" y2="243" stroke="#5872c9" stroke-width="1" stroke-dasharray="4,2" marker-end="url(#ab)"/>
  <rect x="130" y="355" width="160" height="46" fill="#f7f8fa" stroke="#8a93a3" stroke-width="1.5" rx="6"/>
  <text x="210" y="376" text-anchor="middle" font-size="13" fill="#8a93a3">Setter</text>
  <text x="210" y="392" text-anchor="middle" font-size="10" fill="#8a93a3">forall p. Mapping p =&gt;</text>
  <rect x="370" y="355" width="160" height="46" fill="#f7f8fa" stroke="#8a93a3" stroke-width="1.5" rx="6"/>
  <text x="450" y="376" text-anchor="middle" font-size="13" fill="#8a93a3">Fold</text>
  <text x="450" y="392" text-anchor="middle" font-size="10" fill="#8a93a3">forall p. Bicontravariant p =&gt;</text>
  <rect x="610" y="355" width="160" height="46" fill="#f7f8fa" stroke="#8a93a3" stroke-width="1.5" rx="6"/>
  <text x="690" y="376" text-anchor="middle" font-size="13" fill="#8a93a3">Getter</text>
  <text x="690" y="392" text-anchor="middle" font-size="10" fill="#8a93a3">Forget r (read-only)</text>
  <line x1="290" y1="291" x2="230" y2="353" stroke="#8a93a3" stroke-width="1" marker-end="url(#ab)"/>
  <line x1="350" y1="291" x2="430" y2="353" stroke="#8a93a3" stroke-width="1" marker-end="url(#ab)"/>
  <line x1="480" y1="291" x2="650" y2="353" stroke="#8a93a3" stroke-width="1" stroke-dasharray="4,2" marker-end="url(#ab)"/>
  <rect x="20" y="435" width="860" height="52" fill="#f7f8fa" rx="4"/>
  <text x="40" y="454" font-size="11" font-weight="bold" fill="#0f172a">Profunctor constraints:</text>
  <text x="40" y="472" font-size="11" fill="#5872c9">Strong: first :: p a b -&gt; p (a,c) (b,c)</text>
  <text x="280" y="472" font-size="11" fill="#3f9d77">Choice: left :: p a b -&gt; p (Either a c) (Either b c)</text>
  <text x="570" y="472" font-size="11" fill="#8b6db5">Closed: closed :: p a b -&gt; p (x-&gt;a) (x-&gt;b)</text>
  <text x="200" y="454" font-size="11" fill="#d9a441">Wander = Strong + Choice + traverse-like</text>
  <text x="550" y="454" font-size="11" fill="#8a93a3">solid = is-a  |  dashed = combination</text>
</svg>