<svg xmlns="http://www.w3.org/2000/svg" viewBox="0 0 720 440" font-family="monospace,Arial,sans-serif" font-size="13">
  <rect width="720" height="440" fill="#ffffff" rx="10"/>

  <!-- Title -->
  <text x="360" y="30" fill="#2d4a6e" font-size="16" font-weight="bold" text-anchor="middle">Haskell Concurrency Tools Landscape</text>

  <!-- Y axis label -->
  <text x="18" y="240" fill="#6b7280" font-size="11" text-anchor="middle" transform="rotate(-90,18,240)">abstraction level</text>
  <line x1="35" y1="55" x2="35" y2="385" stroke="#c0c8d8" stroke-width="1.5"/>
  <polygon points="35,48 31,62 39,62" fill="#c0c8d8"/>

  <!-- X axis label -->
  <text x="400" y="420" fill="#6b7280" font-size="11" text-anchor="middle">dependency structure</text>
  <line x1="35" y1="385" x2="695" y2="385" stroke="#c0c8d8" stroke-width="1.5"/>
  <polygon points="702,385 688,381 688,389" fill="#c0c8d8"/>
  <text x="50" y="400" fill="#6b7280" font-size="10">Applicative (independent)</text>
  <text x="560" y="400" fill="#6b7280" font-size="10">Monad (sequential)</text>

  <!-- Row labels (Y) -->
  <text x="40" y="90" fill="#6b7280" font-size="10">protocols</text>
  <text x="40" y="165" fill="#6b7280" font-size="10">high-level</text>
  <text x="40" y="235" fill="#6b7280" font-size="10">STM</text>
  <text x="40" y="305" fill="#6b7280" font-size="10">threads</text>
  <text x="40" y="370" fill="#6b7280" font-size="10">pure</text>

  <!-- Grid lines -->
  <line x1="35" y1="105" x2="695" y2="105" stroke="#dde3ee" stroke-width="1" stroke-dasharray="4,4"/>
  <line x1="35" y1="180" x2="695" y2="180" stroke="#dde3ee" stroke-width="1" stroke-dasharray="4,4"/>
  <line x1="35" y1="250" x2="695" y2="250" stroke="#dde3ee" stroke-width="1" stroke-dasharray="4,4"/>
  <line x1="35" y1="320" x2="695" y2="320" stroke="#dde3ee" stroke-width="1" stroke-dasharray="4,4"/>

  <!-- === BOXES === -->

  <!-- IORef: low abstraction, sequential -->
  <rect x="480" y="330" width="120" height="44" rx="6" fill="#fff4ec" stroke="#e3722c" stroke-width="1.5"/>
  <text x="540" y="349" fill="#c25a10" font-size="12" font-weight="bold" text-anchor="middle">IORef</text>
  <text x="540" y="365" fill="#6b7280" font-size="10" text-anchor="middle">no protection</text>

  <!-- MVar: low, sequential -->
  <rect x="310" y="330" width="130" height="44" rx="6" fill="#f0faf0" stroke="#3fb950" stroke-width="1.5"/>
  <text x="375" y="349" fill="#1a7a2a" font-size="12" font-weight="bold" text-anchor="middle">MVar</text>
  <text x="375" y="365" fill="#6b7280" font-size="10" text-anchor="middle">mutex/semaphore</text>

  <!-- Eval/Par: low, applicative/parallel -->
  <rect x="70" y="330" width="130" height="44" rx="6" fill="#eef4ff" stroke="#58a6ff" stroke-width="1.5"/>
  <text x="135" y="349" fill="#1a56b0" font-size="12" font-weight="bold" text-anchor="middle">Eval / Par</text>
  <text x="135" y="365" fill="#6b7280" font-size="10" text-anchor="middle">pure parallelism</text>

  <!-- TVar/STM: mid, both -->
  <rect x="200" y="215" width="190" height="44" rx="6" fill="#f5f0ff" stroke="#8b5cf6" stroke-width="2"/>
  <text x="295" y="234" fill="#5b21b6" font-size="12" font-weight="bold" text-anchor="middle">TVar / STM</text>
  <text x="295" y="250" fill="#6b7280" font-size="10" text-anchor="middle">composable transactions</text>

  <!-- TQueue: mid-right, sequential -->
  <rect x="440" y="215" width="130" height="44" rx="6" fill="#f5f0ff" stroke="#8b5cf6" stroke-width="1.5"/>
  <text x="505" y="234" fill="#5b21b6" font-size="12" font-weight="bold" text-anchor="middle">TQueue/TChan</text>
  <text x="505" y="250" fill="#6b7280" font-size="10" text-anchor="middle">channels via STM</text>

  <!-- async/concurrently: high, applicative -->
  <rect x="70" y="145" width="190" height="44" rx="6" fill="#eef4ff" stroke="#58a6ff" stroke-width="2"/>
  <text x="165" y="164" fill="#1a56b0" font-size="12" font-weight="bold" text-anchor="middle">concurrently</text>
  <text x="165" y="180" fill="#6b7280" font-size="10" text-anchor="middle">liftA2 (,) for IO</text>

  <!-- race: high, applicative -->
  <rect x="280" y="145" width="110" height="44" rx="6" fill="#eef4ff" stroke="#58a6ff" stroke-width="1.5"/>
  <text x="335" y="164" fill="#1a56b0" font-size="12" font-weight="bold" text-anchor="middle">race</text>
  <text x="335" y="180" fill="#6b7280" font-size="10" text-anchor="middle">Either result</text>

  <!-- mapConcurrently: high, applicative -->
  <rect x="410" y="145" width="160" height="44" rx="6" fill="#eef4ff" stroke="#58a6ff" stroke-width="1.5"/>
  <text x="490" y="164" fill="#1a56b0" font-size="12" font-weight="bold" text-anchor="middle">mapConcurrently</text>
  <text x="490" y="180" fill="#6b7280" font-size="10" text-anchor="middle">parallel mapM</text>

  <!-- Session types: top, structured -->
  <rect x="70" y="62" width="190" height="44" rx="6" fill="#fff8ee" stroke="#f0883e" stroke-width="2"/>
  <text x="165" y="81" fill="#b45309" font-size="12" font-weight="bold" text-anchor="middle">Session Types</text>
  <text x="165" y="97" fill="#6b7280" font-size="10" text-anchor="middle">protocol in the type</text>

  <!-- Linear types: top, both -->
  <rect x="290" y="62" width="180" height="44" rx="6" fill="#f0fff4" stroke="#39d353" stroke-width="2"/>
  <text x="380" y="81" fill="#166534" font-size="12" font-weight="bold" text-anchor="middle">Linear Types</text>
  <text x="380" y="97" fill="#6b7280" font-size="10" text-anchor="middle">a %1-&gt; b, resources</text>

  <!-- STM note: orElse = monoid -->
  <rect x="490" y="62" width="190" height="44" rx="6" fill="#f5f0ff" stroke="#8b5cf6" stroke-width="1.5"/>
  <text x="585" y="78" fill="#5b21b6" font-size="11" font-weight="bold" text-anchor="middle">STM: orElse = mappend</text>
  <text x="585" y="95" fill="#6b7280" font-size="10" text-anchor="middle">retry = mempty &#x2014; monoid</text>

  <!-- Arrows -->
  <line x1="295" y1="259" x2="375" y2="330" stroke="#c0c8d8" stroke-width="1" stroke-dasharray="3,3"/>
  <line x1="295" y1="259" x2="295" y2="330" stroke="#c0c8d8" stroke-width="1" stroke-dasharray="3,3"/>
  <line x1="165" y1="189" x2="135" y2="330" stroke="#c0c8d8" stroke-width="1" stroke-dasharray="3,3"/>
  <line x1="295" y1="189" x2="295" y2="215" stroke="#c0c8d8" stroke-width="1" stroke-dasharray="3,3"/>
</svg>
