<svg xmlns="http://www.w3.org/2000/svg" width="900" height="520" viewBox="0 0 900 520">
  <defs>
    <style>
      text { font-family: "Courier New", monospace; }
      .title { font-size: 21px; fill: #cbd5e1; font-weight: bold; }
      .label { font-size: 13px; fill: #8a93a3; }
      .sub { font-size: 11px; fill: #8a93a3; }
      .sec { font-size: 11px; fill: #cbd5e1; }
    </style>
    <marker id="arr" markerWidth="8" markerHeight="8" refX="6" refY="3" orient="auto">
      <path d="M0,0 L0,6 L8,3 z" fill="#8a93a3"/>
    </marker>
  </defs>
  <rect width="900" height="520" fill="#ffffff"/>
  <text x="450" y="36" text-anchor="middle" class="title">GPU / Data Parallelism in Haskell: Categorical View</text>

  <!-- Layer: Data parallelism -->
  <text x="30" y="68" class="sec" fill="#8a93a3">Core idea: data parallelism</text>
  <line x1="30" y1="73" x2="870" y2="73" stroke="#0f172a" stroke-width="1"/>

  <rect x="30" y="83" width="200" height="90" rx="10" fill="#3a4a96" stroke="#5872c9" stroke-width="2"/>
  <text x="130" y="107" text-anchor="middle" class="label" fill="#5872c9">Array as Functor</text>
  <text x="130" y="125" text-anchor="middle" class="sub">Array sh e = sh -&gt; e</text>
  <text x="130" y="141" text-anchor="middle" class="sub">map f = fmap f</text>
  <text x="130" y="157" text-anchor="middle" class="sub">fold = catamorphism</text>
  <text x="130" y="168" text-anchor="middle" class="sub">Exponential object</text>

  <rect x="260" y="83" width="200" height="90" rx="10" fill="#3a4a96" stroke="#5872c9" stroke-width="2"/>
  <text x="360" y="107" text-anchor="middle" class="label" fill="#5872c9">Accelerate EDSL</text>
  <text x="360" y="125" text-anchor="middle" class="sub">Acc (Array sh e) -- GPU type</text>
  <text x="360" y="141" text-anchor="middle" class="sub">Exp e -- scalar GPU expr</text>
  <text x="360" y="157" text-anchor="middle" class="sub">run :: Acc a -&gt; a</text>
  <text x="360" y="168" text-anchor="middle" class="sub">Two-level staging</text>

  <rect x="490" y="83" width="180" height="90" rx="10" fill="#2f6f54" stroke="#3f9d77" stroke-width="2"/>
  <text x="580" y="107" text-anchor="middle" class="label" fill="#3f9d77">Repa</text>
  <text x="580" y="125" text-anchor="middle" class="sub">Array r sh e</text>
  <text x="580" y="141" text-anchor="middle" class="sub">r = representation</text>
  <text x="580" y="157" text-anchor="middle" class="sub">Delayed / Manifest</text>
  <text x="580" y="168" text-anchor="middle" class="sub">Delayed fusion</text>

  <rect x="700" y="83" width="170" height="90" rx="10" fill="#5f4a86" stroke="#8b6db5" stroke-width="2"/>
  <text x="785" y="107" text-anchor="middle" class="label" fill="#efeaf6">DPH</text>
  <text x="785" y="125" text-anchor="middle" class="sub">[:a:] -- parallel array</text>
  <text x="785" y="141" text-anchor="middle" class="sub">mapP, filterP, sumP</text>
  <text x="785" y="157" text-anchor="middle" class="sub">Flat vectorisation</text>
  <text x="785" y="168" text-anchor="middle" class="sub">GHC pragma sugar</text>

  <!-- Layer: Staged compilation -->
  <text x="30" y="200" class="sec" fill="#8a93a3">Staged compilation pipeline</text>
  <line x1="30" y1="205" x2="870" y2="205" stroke="#0f172a" stroke-width="1"/>

  <rect x="30" y="215" width="160" height="80" rx="8" fill="#3a4a96" stroke="#5872c9" stroke-width="2"/>
  <text x="110" y="240" text-anchor="middle" class="label" fill="#5872c9">Haskell AST</text>
  <text x="110" y="258" text-anchor="middle" class="sub">Acc/Exp = HOAS</text>
  <text x="110" y="274" text-anchor="middle" class="sub">Deep embedded DSL</text>
  <text x="110" y="285" text-anchor="middle" class="sub">Typechecked in GHC</text>

  <line x1="195" y1="255" x2="222" y2="255" stroke="#8a93a3" stroke-width="1.5" marker-end="url(#arr)"/>

  <rect x="225" y="215" width="180" height="80" rx="8" fill="#3a4a96" stroke="#5872c9" stroke-width="2"/>
  <text x="315" y="240" text-anchor="middle" class="label" fill="#5872c9">Accelerate IR</text>
  <text x="315" y="258" text-anchor="middle" class="sub">Typed de Bruijn</text>
  <text x="315" y="274" text-anchor="middle" class="sub">Optimizations: fusion</text>
  <text x="315" y="285" text-anchor="middle" class="sub">sharing recovery</text>

  <line x1="410" y1="255" x2="437" y2="255" stroke="#8a93a3" stroke-width="1.5" marker-end="url(#arr)"/>

  <rect x="440" y="215" width="200" height="80" rx="8" fill="#3a4a96" stroke="#5872c9" stroke-width="2"/>
  <text x="540" y="240" text-anchor="middle" class="label" fill="#5872c9">LLVM IR / PTX (CUDA)</text>
  <text x="540" y="258" text-anchor="middle" class="sub">GPU kernels</text>
  <text x="540" y="274" text-anchor="middle" class="sub">Vectorisation + grids</text>
  <text x="540" y="285" text-anchor="middle" class="sub">Warp-level parallelism</text>

  <line x1="645" y1="255" x2="672" y2="255" stroke="#8a93a3" stroke-width="1.5" marker-end="url(#arr)"/>

  <rect x="675" y="215" width="195" height="80" rx="8" fill="#3a4a96" stroke="#5872c9" stroke-width="2"/>
  <text x="773" y="240" text-anchor="middle" class="label" fill="#5872c9">GPU Execution</text>
  <text x="773" y="258" text-anchor="middle" class="sub">CUDA/OpenCL/Metal</text>
  <text x="773" y="274" text-anchor="middle" class="sub">Parallel threads</text>
  <text x="773" y="285" text-anchor="middle" class="sub">Haskell -&gt; GPU</text>

  <!-- Layer: Operations -->
  <text x="30" y="325" class="sec" fill="#8a93a3">Operations and categorical structure</text>
  <line x1="30" y1="330" x2="870" y2="330" stroke="#0f172a" stroke-width="1"/>

  <rect x="30" y="340" width="155" height="65" rx="8" fill="#3a4a96" stroke="#5872c9" stroke-width="1.5"/>
  <text x="107" y="362" text-anchor="middle" class="label" fill="#5872c9">map</text>
  <text x="107" y="378" text-anchor="middle" class="sub">fmap :: Functor</text>
  <text x="107" y="394" text-anchor="middle" class="sub">Morphism in Array cat</text>

  <rect x="195" y="340" width="155" height="65" rx="8" fill="#3a4a96" stroke="#5872c9" stroke-width="1.5"/>
  <text x="273" y="362" text-anchor="middle" class="label" fill="#5872c9">fold / scan</text>
  <text x="273" y="378" text-anchor="middle" class="sub">fold :: (a-&gt;a-&gt;a) -&gt; a</text>
  <text x="273" y="394" text-anchor="middle" class="sub">Catamorphism</text>

  <rect x="360" y="340" width="165" height="65" rx="8" fill="#3a4a96" stroke="#5872c9" stroke-width="1.5"/>
  <text x="443" y="362" text-anchor="middle" class="label" fill="#5872c9">zipWith</text>
  <text x="443" y="378" text-anchor="middle" class="sub">binary op on arrays</text>
  <text x="443" y="394" text-anchor="middle" class="sub">liftA2 :: Applicative</text>

  <rect x="535" y="340" width="155" height="65" rx="8" fill="#3a4a96" stroke="#5872c9" stroke-width="1.5"/>
  <text x="613" y="362" text-anchor="middle" class="label" fill="#5872c9">stencil</text>
  <text x="613" y="378" text-anchor="middle" class="sub">neighbour elements</text>
  <text x="613" y="394" text-anchor="middle" class="sub">comonad extend</text>

  <rect x="700" y="340" width="170" height="65" rx="8" fill="#3a4a96" stroke="#5872c9" stroke-width="1.5"/>
  <text x="785" y="362" text-anchor="middle" class="label" fill="#5872c9">permute</text>
  <text x="785" y="378" text-anchor="middle" class="sub">permutation / scatter</text>
  <text x="785" y="394" text-anchor="middle" class="sub">Shape isomorphism</text>

  <!-- Category theory layer -->
  <text x="30" y="430" class="sec" fill="#8a93a3">Categorical view</text>
  <line x1="30" y1="435" x2="870" y2="435" stroke="#0f172a" stroke-width="1"/>

  <rect x="30" y="445" width="390" height="55" rx="8" fill="#3a4a96" stroke="#5872c9" stroke-width="1.5"/>
  <text x="225" y="468" text-anchor="middle" class="label" fill="#5872c9">Acc[a] = object in DataParallel category</text>
  <text x="225" y="484" text-anchor="middle" class="sub">map=functor, fold=catamorphism, stencil=comonad extend</text>

  <rect x="450" y="445" width="420" height="55" rx="8" fill="#3a4a96" stroke="#5872c9" stroke-width="1.5"/>
  <text x="660" y="468" text-anchor="middle" class="label" fill="#5872c9">Fusion = free theorem / deforestation</text>
  <text x="660" y="484" text-anchor="middle" class="sub">map f . map g = map (f . g) -- one GPU pass</text>

  <text x="450" y="515" text-anchor="middle" class="sub" fill="#8a93a3">GPU Haskell: Accelerate EDSL + staged compilation + categorical structure</text>
</svg>