<svg xmlns="http://www.w3.org/2000/svg" width="740" height="340" viewBox="0 0 740 340" font-family="monospace,Arial,sans-serif">
  <defs>
    <marker id="arrB" markerWidth="8" markerHeight="8" refX="6" refY="3" orient="auto"><path d="M0,0 L0,6 L8,3 z" fill="#2563eb"/></marker>
    <marker id="arrB2" markerWidth="8" markerHeight="8" refX="6" refY="3" orient="auto"><path d="M0,0 L0,6 L8,3 z" fill="#64748b"/></marker>
    <marker id="arrG" markerWidth="8" markerHeight="8" refX="6" refY="3" orient="auto"><path d="M0,0 L0,6 L8,3 z" fill="#059669"/></marker>
    <marker id="arrG2" markerWidth="8" markerHeight="8" refX="6" refY="3" orient="auto"><path d="M0,0 L0,6 L8,3 z" fill="#64748b"/></marker>
    <marker id="arrGr" markerWidth="8" markerHeight="8" refX="6" refY="3" orient="auto"><path d="M0,0 L0,6 L8,3 z" fill="#16a34a"/></marker>
  </defs>
  <rect width="740" height="340" fill="#ffffff" rx="8"/>
  <text x="370" y="28" text-anchor="middle" font-size="16" font-weight="bold" fill="#0f172a">Lemma Yoneda: Nat(Hom(a,-), F) ~ F a</text>

  <!-- Left: Hom functor -->
  <rect x="20" y="50" width="300" height="200" rx="8" fill="#f1f5f9" stroke="#2563eb" stroke-width="1.5"/>
  <text x="170" y="74" text-anchor="middle" font-size="13" font-weight="bold" fill="#1e40af">Functor Hom(a, -)</text>
  <text x="170" y="90" text-anchor="middle" font-size="11" fill="#64748b">b -&gt; Hom(a, b) = (a -&gt; b)</text>

  <circle cx="100" cy="145" r="8" fill="#1d4ed8"/>
  <text x="100" y="137" text-anchor="middle" font-size="11" fill="#1e40af">b</text>
  <circle cx="240" cy="145" r="8" fill="#1d4ed8"/>
  <text x="240" y="137" text-anchor="middle" font-size="11" fill="#1e40af">b'</text>

  <rect x="65" y="158" width="70" height="32" rx="4" fill="#0c2340" stroke="#1d4ed8" stroke-width="1"/>
  <text x="100" y="178" text-anchor="middle" font-size="10" fill="#1e40af">Hom(a,b)</text>
  <rect x="205" y="158" width="70" height="32" rx="4" fill="#0c2340" stroke="#1d4ed8" stroke-width="1"/>
  <text x="240" y="178" text-anchor="middle" font-size="10" fill="#1e40af">Hom(a,b')</text>

  <line x1="108" y1="145" x2="232" y2="145" stroke="#2563eb" stroke-width="1.5" marker-end="url(#arrB)"/>
  <text x="170" y="139" text-anchor="middle" font-size="10" fill="#2563eb">f : b -&gt; b'</text>
  <line x1="135" y1="174" x2="205" y2="174" stroke="#64748b" stroke-width="1.5" marker-end="url(#arrB2)"/>
  <text x="170" y="196" text-anchor="middle" font-size="9" fill="#64748b">(- . f) = fmap f</text>

  <text x="170" y="228" text-anchor="middle" font-size="11" fill="#1e40af">Hom(a,-) :: C -&gt; Set</text>
  <text x="170" y="244" text-anchor="middle" font-size="11" fill="#64748b">Representable: F ~ Hom(r,-)</text>

  <!-- Isomorphism -->
  <text x="370" y="158" text-anchor="middle" font-size="28" fill="#16a34a">~</text>
  <text x="370" y="176" text-anchor="middle" font-size="10" fill="#16a34a">isomorphism</text>
  <line x1="330" y1="150" x2="420" y2="150" stroke="#16a34a" stroke-width="2" stroke-dasharray="5,3"/>

  <!-- Right: Functor F -->
  <rect x="420" y="50" width="300" height="200" rx="8" fill="#f1f5f9" stroke="#059669" stroke-width="1.5"/>
  <text x="570" y="74" text-anchor="middle" font-size="13" font-weight="bold" fill="#15803d">Functor F</text>
  <text x="570" y="90" text-anchor="middle" font-size="11" fill="#64748b">arbitrary F : C -&gt; Set</text>

  <circle cx="500" cy="145" r="8" fill="#22c55e"/>
  <text x="500" y="137" text-anchor="middle" font-size="11" fill="#15803d">Fb</text>
  <circle cx="640" cy="145" r="8" fill="#22c55e"/>
  <text x="640" y="137" text-anchor="middle" font-size="11" fill="#15803d">Fb'</text>

  <rect x="460" y="158" width="80" height="32" rx="4" fill="#052e16" stroke="#22c55e" stroke-width="1"/>
  <text x="500" y="178" text-anchor="middle" font-size="10" fill="#15803d">F b</text>
  <rect x="600" y="158" width="80" height="32" rx="4" fill="#052e16" stroke="#22c55e" stroke-width="1"/>
  <text x="640" y="178" text-anchor="middle" font-size="10" fill="#15803d">F b'</text>

  <line x1="508" y1="145" x2="632" y2="145" stroke="#059669" stroke-width="1.5" marker-end="url(#arrG)"/>
  <text x="570" y="139" text-anchor="middle" font-size="10" fill="#059669">f : b -&gt; b'</text>
  <line x1="540" y1="174" x2="600" y2="174" stroke="#64748b" stroke-width="1.5" marker-end="url(#arrG2)"/>
  <text x="570" y="196" text-anchor="middle" font-size="9" fill="#64748b">fmap f = F f</text>

  <text x="570" y="228" text-anchor="middle" font-size="11" fill="#15803d">Key point: F a</text>
  <text x="570" y="244" text-anchor="middle" font-size="11" fill="#64748b">(Nat(Hom(a,-), F) ~ F a)</text>

  <!-- Bottom: natural transformation -->
  <rect x="20" y="268" width="700" height="58" rx="8" fill="#f1f5f9" stroke="#7c3aed" stroke-width="1.5"/>
  <text x="370" y="286" text-anchor="middle" font-size="12" font-weight="bold" fill="#7c3aed">Natural transformation alpha</text>
  <text x="370" y="303" text-anchor="middle" font-size="10" fill="#334155">alpha_b :: Hom(a,b) -&gt; F b  |  toYoneda :: F a -&gt; Nat(Hom(a,-), F)  |  fromYoneda :: Nat -&gt; F a</text>
  <text x="370" y="318" text-anchor="middle" font-size="10" fill="#64748b">Every alpha is determined by alpha_a(id_a) in F a</text>
</svg>