<svg xmlns="http://www.w3.org/2000/svg" width="700" height="360" font-family="monospace,Arial,sans-serif">
  <defs>
    <marker id="arr" markerWidth="10" markerHeight="7" refX="9" refY="3.5" orient="auto"><polygon points="0 0,10 3.5,0 7" fill="#5872c9"/></marker>
    <marker id="arro" markerWidth="10" markerHeight="7" refX="9" refY="3.5" orient="auto"><polygon points="0 0,10 3.5,0 7" fill="#d9a441"/></marker>
    <marker id="arrp" markerWidth="10" markerHeight="7" refX="9" refY="3.5" orient="auto"><polygon points="0 0,10 3.5,0 7" fill="#8b6db5"/></marker>
  </defs>
  <rect width="700" height="360" fill="#ffffff" rx="8"/>
  <text x="350" y="32" text-anchor="middle" font-size="14" fill="#0f172a" font-weight="bold">Hom-functor Hom(a,-) : C -&gt; Hask</text>
  <ellipse cx="160" cy="190" rx="115" ry="135" fill="#f7f8fa" stroke="#cbd5e1" stroke-width="1.5"/>
  <text x="160" y="68" text-anchor="middle" font-size="12" fill="#8a93a3">Category C</text>
  <circle cx="125" cy="150" r="5" fill="#5872c9"/>
  <text x="110" y="146" text-anchor="end" font-size="12" fill="#5872c9">a</text>
  <circle cx="185" cy="220" r="5" fill="#3f9d77"/>
  <text x="200" y="226" text-anchor="start" font-size="12" fill="#3f9d77">b</text>
  <circle cx="125" cy="290" r="5" fill="#d9a441"/>
  <text x="110" y="295" text-anchor="end" font-size="12" fill="#d9a441">c</text>
  <line x1="180" y1="215" x2="130" y2="285" stroke="#8b6db5" stroke-width="1.5" marker-end="url(#arrp)"/>
  <text x="168" y="260" text-anchor="start" font-size="11" fill="#8b6db5">f:b-&gt;c</text>
  <ellipse cx="540" cy="190" rx="130" ry="135" fill="#f7f8fa" stroke="#cbd5e1" stroke-width="1.5"/>
  <text x="540" y="68" text-anchor="middle" font-size="12" fill="#8a93a3">Category Hask</text>
  <rect x="468" y="120" width="140" height="42" rx="6" fill="#eef1fb" stroke="#5872c9" stroke-width="1"/>
  <text x="538" y="137" text-anchor="middle" font-size="11" fill="#0f172a">Hom(a,b) = a-&gt;b</text>
  <text x="538" y="153" text-anchor="middle" font-size="9" fill="#8a93a3">functions from a to b</text>
  <rect x="468" y="252" width="140" height="42" rx="6" fill="#f4e7cf" stroke="#d9a441" stroke-width="1"/>
  <text x="538" y="269" text-anchor="middle" font-size="11" fill="#0f172a">Hom(a,c) = a-&gt;c</text>
  <text x="538" y="285" text-anchor="middle" font-size="9" fill="#8a93a3">functions from a to c</text>
  <line x1="538" y1="162" x2="538" y2="252" stroke="#8b6db5" stroke-width="1.5" marker-end="url(#arrp)"/>
  <text x="550" y="211" text-anchor="start" font-size="10" fill="#8b6db5">f . _</text>
  <path d="M 280 155 Q 345 115 415 141" fill="none" stroke="#d9a441" stroke-width="2" marker-end="url(#arro)"/>
  <text x="348" y="110" text-anchor="middle" font-size="12" fill="#d9a441">Hom(a,-)</text>
  <text x="350" y="345" text-anchor="middle" font-size="10" fill="#8a93a3">Yoneda: Nat(Hom(a,-), F) ~ F(a)  -- natural transformations from Hom(a,-) to F ~ F(a)</text>
</svg>
