<svg xmlns="http://www.w3.org/2000/svg" width="700" height="360" style="background:#0f172a;border-radius:12px">
  <defs>
    <marker id="arr" markerWidth="10" markerHeight="7" refX="9" refY="3.5" orient="auto"><polygon points="0 0,10 3.5,0 7" fill="#60a5fa"/></marker>
    <marker id="arro" markerWidth="10" markerHeight="7" refX="9" refY="3.5" orient="auto"><polygon points="0 0,10 3.5,0 7" fill="#fb923c"/></marker>
    <marker id="arrp" markerWidth="10" markerHeight="7" refX="9" refY="3.5" orient="auto"><polygon points="0 0,10 3.5,0 7" fill="#a78bfa"/></marker>
  </defs>
  <text x="350" y="32" text-anchor="middle" font-family="monospace" font-size="14" fill="#e2e8f0" font-weight="bold">Hom-funktor Hom(a,-) : C -&gt; Hask</text>
  <ellipse cx="160" cy="190" rx="115" ry="135" fill="#1e293b" stroke="#334155" stroke-width="1.5"/>
  <text x="160" y="68" text-anchor="middle" font-family="monospace" font-size="12" fill="#94a3b8">Kategoriya C</text>
  <circle cx="125" cy="150" r="5" fill="#60a5fa"/>
  <text x="110" y="146" text-anchor="end" font-family="monospace" font-size="12" fill="#60a5fa">a</text>
  <circle cx="185" cy="220" r="5" fill="#34d399"/>
  <text x="200" y="226" text-anchor="start" font-family="monospace" font-size="12" fill="#34d399">b</text>
  <circle cx="125" cy="290" r="5" fill="#fb923c"/>
  <text x="110" y="295" text-anchor="end" font-family="monospace" font-size="12" fill="#fb923c">c</text>
  <line x1="180" y1="215" x2="130" y2="285" stroke="#a78bfa" stroke-width="1.5" marker-end="url(#arrp)"/>
  <text x="168" y="260" text-anchor="start" font-family="monospace" font-size="11" fill="#a78bfa">f:b-&gt;c</text>
  <ellipse cx="540" cy="190" rx="130" ry="135" fill="#1e293b" stroke="#334155" stroke-width="1.5"/>
  <text x="540" y="68" text-anchor="middle" font-family="monospace" font-size="12" fill="#94a3b8">Kategoriya Hask</text>
  <rect x="468" y="120" width="140" height="42" rx="6" fill="#1e40af" stroke="#60a5fa" stroke-width="1"/>
  <text x="538" y="137" text-anchor="middle" font-family="monospace" font-size="11" fill="#e2e8f0">Hom(a,b) = a-&gt;b</text>
  <text x="538" y="153" text-anchor="middle" font-family="monospace" font-size="9" fill="#94a3b8">funkcii iz a v b</text>
  <rect x="468" y="252" width="140" height="42" rx="6" fill="#14532d" stroke="#34d399" stroke-width="1"/>
  <text x="538" y="269" text-anchor="middle" font-family="monospace" font-size="11" fill="#e2e8f0">Hom(a,c) = a-&gt;c</text>
  <text x="538" y="285" text-anchor="middle" font-family="monospace" font-size="9" fill="#94a3b8">funkcii iz a v c</text>
  <line x1="538" y1="162" x2="538" y2="252" stroke="#a78bfa" stroke-width="1.5" marker-end="url(#arrp)"/>
  <text x="550" y="211" text-anchor="start" font-family="monospace" font-size="10" fill="#a78bfa">f . _ </text>
  <path d="M 280 155 Q 345 115 415 141" fill="none" stroke="#fb923c" stroke-width="2" marker-end="url(#arro)"/>
  <text x="348" y="110" text-anchor="middle" font-family="monospace" font-size="12" fill="#fb923c">Hom(a,-)</text>
  <text x="350" y="345" text-anchor="middle" font-family="monospace" font-size="10" fill="#64748b">Yoneda: Nat(Hom(a,-), F) ~ F(a)  -- estestvennyje preobrazovanija iz Hom(a,-) v F ~ F(a)</text>
</svg>