<svg xmlns="http://www.w3.org/2000/svg" width="600" height="380">
<defs>
  <marker id="arr" markerWidth="10" markerHeight="7" refX="9" refY="3.5" orient="auto">
    <polygon points="0 0, 10 3.5, 0 7" fill="#334466"/>
  </marker>
  <marker id="arrR" markerWidth="10" markerHeight="7" refX="9" refY="3.5" orient="auto">
    <polygon points="0 0, 10 3.5, 0 7" fill="#cc4444"/>
  </marker>
  <marker id="arrG" markerWidth="10" markerHeight="7" refX="9" refY="3.5" orient="auto">
    <polygon points="0 0, 10 3.5, 0 7" fill="#228844"/>
  </marker>
  <marker id="arrB" markerWidth="10" markerHeight="7" refX="9" refY="3.5" orient="auto">
    <polygon points="0 0, 10 3.5, 0 7" fill="#2255cc"/>
  </marker>
  <marker id="arrP" markerWidth="10" markerHeight="7" refX="9" refY="3.5" orient="auto">
    <polygon points="0 0, 10 3.5, 0 7" fill="#884499"/>
  </marker>
  <marker id="arrY" markerWidth="10" markerHeight="7" refX="9" refY="3.5" orient="auto">
    <polygon points="0 0, 10 3.5, 0 7" fill="#ccaa00"/>
  </marker>
</defs>
<rect width="600" height="380" fill="#ffffff" rx="10"/>
<text x="300" y="35" text-anchor="middle" font-family="monospace,Arial,sans-serif" font-size="17" fill="#1a2a6a" font-weight="bold">Right Kan Extension (Ran)</text>
<text x="300" y="55" text-anchor="middle" font-family="monospace,Arial,sans-serif" font-size="13" fill="#556688">Nat(f&#183;g, h) &#8773; Nat(f, Ran g h)</text>
<rect x="60" y="100" width="90" height="46" rx="8" fill="#dbeafe" stroke="#4488dd" stroke-width="2"/>
<text x="105" y="128" text-anchor="middle" font-family="monospace,Arial,sans-serif" font-size="22" fill="#1a4488" font-weight="bold">C</text>
<rect x="450" y="100" width="90" height="46" rx="8" fill="#dbeafe" stroke="#4488dd" stroke-width="2"/>
<text x="495" y="128" text-anchor="middle" font-family="monospace,Arial,sans-serif" font-size="22" fill="#1a4488" font-weight="bold">D</text>
<rect x="255" y="290" width="90" height="46" rx="8" fill="#ede9fe" stroke="#9944dd" stroke-width="2"/>
<text x="300" y="318" text-anchor="middle" font-family="monospace,Arial,sans-serif" font-size="22" fill="#6622aa" font-weight="bold">E</text>
<line x1="154" y1="123" x2="445" y2="123" stroke="#4488dd" stroke-width="2.5" marker-end="url(#arrB)"/>
<text x="300" y="113" text-anchor="middle" font-family="monospace,Arial,sans-serif" font-size="15" fill="#2255cc">g</text>
<line x1="88" y1="148" x2="266" y2="285" stroke="#cc4444" stroke-width="2.5" marker-end="url(#arrR)"/>
<text x="158" y="227" text-anchor="middle" font-family="monospace,Arial,sans-serif" font-size="15" fill="#cc4444">h</text>
<line x1="508" y1="148" x2="350" y2="285" stroke="#228844" stroke-width="2.5" stroke-dasharray="8,4" marker-end="url(#arrG)"/>
<text x="452" y="224" text-anchor="middle" font-family="monospace,Arial,sans-serif" font-size="13" fill="#228844">Ran g h</text>
<line x1="492" y1="148" x2="342" y2="283" stroke="#884499" stroke-width="1.8" stroke-dasharray="4,3" marker-end="url(#arrP)"/>
<text x="446" y="245" text-anchor="middle" font-family="monospace,Arial,sans-serif" font-size="13" fill="#884499">f</text>
<path d="M 468 198 Q 430 188 415 202" stroke="#ccaa00" stroke-width="1.8" fill="none" marker-end="url(#arrY)"/>
<text x="440" y="186" text-anchor="middle" font-family="monospace,Arial,sans-serif" font-size="13" fill="#886600">&#945; (unique)</text>
<rect x="30" y="205" width="210" height="62" rx="6" fill="#dbeafe" stroke="#446688" stroke-width="1.2"/>
<text x="135" y="225" text-anchor="middle" font-family="monospace,Arial,sans-serif" font-size="11" fill="#1a3a5a">universal property:</text>
<text x="135" y="241" text-anchor="middle" font-family="monospace,Arial,sans-serif" font-size="11" fill="#2255cc">Nat(f&#183;g,h) &#8773; Nat(f, Ran g h)</text>
<text x="135" y="257" text-anchor="middle" font-family="monospace,Arial,sans-serif" font-size="10" fill="#334466">uniquely determines Ran g h</text>
<rect x="340" y="205" width="230" height="46" rx="6" fill="#dcfce7" stroke="#226644" stroke-width="1.2"/>
<text x="455" y="224" text-anchor="middle" font-family="monospace,Arial,sans-serif" font-size="11" fill="#144422">newtype Ran g h a =</text>
<text x="455" y="240" text-anchor="middle" font-family="monospace,Arial,sans-serif" font-size="11" fill="#226633">Ran { forall b. (a-&gt;g b)-&gt;h b }</text>
</svg>
