<svg xmlns="http://www.w3.org/2000/svg" width="740" height="350" font-family="monospace,Arial,sans-serif">
  <defs><marker id="arr" markerWidth="10" markerHeight="7" refX="9" refY="3.5" orient="auto"><polygon points="0 0, 10 3.5, 0 7" fill="#5872c9"/></marker></defs>
  <rect width="740" height="350" fill="#ffffff" rx="8"/>
  <text x="370" y="26" text-anchor="middle" font-size="16" font-weight="bold" fill="#0f172a">Monad vs Comonad: duality</text>
  <rect x="20" y="38" width="310" height="260" rx="8" fill="#e9f4ee" stroke="#3f9d77" stroke-width="2"/>
  <text x="175" y="60" text-anchor="middle" font-size="14" font-weight="bold" fill="#0f172a">Monad M</text>
  <rect x="38" y="70" width="274" height="40" rx="6" fill="#f7f8fa" stroke="#cbd5e1"/>
  <text x="175" y="86" text-anchor="middle" font-size="11" fill="#0f172a">return :: a &#8594; M a</text>
  <text x="175" y="102" text-anchor="middle" font-size="10" fill="#8a93a3">(inject / pure)</text>
  <rect x="38" y="118" width="274" height="40" rx="6" fill="#f7f8fa" stroke="#cbd5e1"/>
  <text x="175" y="134" text-anchor="middle" font-size="11" fill="#0f172a">(&gt;&gt;=) :: M a &#8594; (a &#8594; M b) &#8594; M b</text>
  <text x="175" y="150" text-anchor="middle" font-size="10" fill="#8a93a3">(join :: M (M a) &#8594; M a)</text>
  <rect x="38" y="166" width="274" height="30" rx="5" fill="#f7f8fa" stroke="#cbd5e1"/>
  <text x="175" y="185" text-anchor="middle" font-size="10" fill="#8a93a3">&#951; : Id &#8594; M | &#956; : M&#178; &#8594; M (join)</text>
  <rect x="38" y="202" width="274" height="30" rx="5" fill="#f7f8fa" stroke="#cbd5e1"/>
  <text x="175" y="221" text-anchor="middle" font-size="10" fill="#8a93a3">Maybe, List, IO, State, ...</text>
  <text x="175" y="268" text-anchor="middle" font-size="10" fill="#3f9d77">&#956; &#8728; &#951;M = id = &#956; &#8728; M&#951;</text>
  <text x="370" y="168" text-anchor="middle" font-size="24" fill="#8b6db5">&#8596;</text>
  <text x="370" y="188" text-anchor="middle" font-size="9" fill="#8b6db5">dual</text>
  <rect x="410" y="38" width="310" height="260" rx="8" fill="#eef1fb" stroke="#5872c9" stroke-width="2"/>
  <text x="565" y="60" text-anchor="middle" font-size="14" font-weight="bold" fill="#0f172a">Comonad W</text>
  <rect x="428" y="70" width="274" height="40" rx="6" fill="#f7f8fa" stroke="#cbd5e1"/>
  <text x="565" y="86" text-anchor="middle" font-size="11" fill="#0f172a">extract :: W a &#8594; a</text>
  <text x="565" y="102" text-anchor="middle" font-size="10" fill="#8a93a3">(project / counit)</text>
  <rect x="428" y="118" width="274" height="40" rx="6" fill="#f7f8fa" stroke="#cbd5e1"/>
  <text x="565" y="134" text-anchor="middle" font-size="11" fill="#0f172a">extend :: W a &#8594; (W a &#8594; b) &#8594; W b</text>
  <text x="565" y="150" text-anchor="middle" font-size="10" fill="#8a93a3">(duplicate :: W a &#8594; W (W a))</text>
  <rect x="428" y="166" width="274" height="30" rx="5" fill="#f7f8fa" stroke="#cbd5e1"/>
  <text x="565" y="185" text-anchor="middle" font-size="10" fill="#8a93a3">&#949; : W &#8594; Id | &#948; : W &#8594; W&#178; (dup)</text>
  <rect x="428" y="202" width="274" height="30" rx="5" fill="#f7f8fa" stroke="#cbd5e1"/>
  <text x="565" y="221" text-anchor="middle" font-size="10" fill="#8a93a3">Store, Stream, Env, Traced, Zipper</text>
  <text x="565" y="268" text-anchor="middle" font-size="10" fill="#5872c9">extract . extend f = f</text>
  <rect x="20" y="308" width="700" height="30" rx="5" fill="#f7f8fa" stroke="#cbd5e1"/>
  <text x="370" y="326" text-anchor="middle" font-size="10" fill="#8a93a3">W = G&#8728;F, M = F&#8728;G -- any adjunction generates a (monad, comonad) pair</text>
</svg>
