<svg xmlns="http://www.w3.org/2000/svg" width="700" height="260" font-family="monospace,'JetBrains Mono',Arial,sans-serif">
  <rect width="700" height="260" fill="#0f172a" rx="8"/>
  <text x="350" y="24" text-anchor="middle" font-size="13" font-weight="bold" fill="#e2e8f0">Konkretnye dual&#39;nye pary: Monada vs Komonada</text>

  <!-- Zagolovki -->
  <rect x="10" y="36" width="220" height="26" rx="4" fill="#172554"/>
  <text x="120" y="53" text-anchor="middle" font-size="11" font-weight="bold" fill="#60a5fa">MONADA</text>
  <rect x="240" y="36" width="220" height="26" rx="4" fill="#172554"/>
  <text x="350" y="53" text-anchor="middle" font-size="11" font-weight="bold" fill="#34d399">KOMONADA</text>
  <rect x="470" y="36" width="220" height="26" rx="4" fill="#172554"/>
  <text x="580" y="53" text-anchor="middle" font-size="11" font-weight="bold" fill="#94a3b8">Otkuda</text>

  <!-- Stroki -->
  <rect x="10" y="68" width="220" height="28" rx="3" fill="#1e293b"/>
  <text x="120" y="85" text-anchor="middle" font-size="11" fill="#60a5fa">Maybe</text>
  <rect x="240" y="68" width="220" height="28" rx="3" fill="#1e293b"/>
  <text x="350" y="85" text-anchor="middle" font-size="10" fill="#94a3b8">net dual&#39;a (Maybe &#8775; kom.)</text>
  <rect x="470" y="68" width="220" height="28" rx="3" fill="#1e293b"/>
  <text x="580" y="85" text-anchor="middle" font-size="9" fill="#94a3b8">net chistogo dual&#39;a</text>

  <rect x="10" y="100" width="220" height="28" rx="3" fill="#172554"/>
  <text x="120" y="117" text-anchor="middle" font-size="11" fill="#60a5fa">Either e</text>
  <rect x="240" y="100" width="220" height="28" rx="3" fill="#172554"/>
  <text x="350" y="117" text-anchor="middle" font-size="10" fill="#94a3b8">net dual&#39;a</text>
  <rect x="470" y="100" width="220" height="28" rx="3" fill="#172554"/>
  <text x="580" y="117" text-anchor="middle" font-size="9" fill="#94a3b8">net chistogo dual&#39;a</text>

  <rect x="10" y="132" width="220" height="28" rx="3" fill="#1e293b"/>
  <text x="120" y="149" text-anchor="middle" font-size="11" fill="#60a5fa">[] (List)</text>
  <rect x="240" y="132" width="220" height="28" rx="3" fill="#1e293b"/>
  <text x="350" y="149" text-anchor="middle" font-size="11" fill="#34d399">NonEmpty*</text>
  <rect x="470" y="132" width="220" height="28" rx="3" fill="#1e293b"/>
  <text x="580" y="149" text-anchor="middle" font-size="9" fill="#94a3b8">chastichno (Stream)</text>

  <rect x="10" y="164" width="220" height="28" rx="3" fill="#172554"/>
  <text x="120" y="181" text-anchor="middle" font-size="11" fill="#60a5fa">State s</text>
  <rect x="240" y="164" width="220" height="28" rx="3" fill="#172554"/>
  <text x="350" y="181" text-anchor="middle" font-size="11" fill="#34d399">Store s</text>
  <rect x="470" y="164" width="220" height="28" rx="3" fill="#172554"/>
  <text x="580" y="181" text-anchor="middle" font-size="9" fill="#94a3b8">(-&gt;s) &#8868; (s-&gt;)</text>

  <rect x="10" y="196" width="220" height="28" rx="3" fill="#1e293b"/>
  <text x="120" y="213" text-anchor="middle" font-size="11" fill="#60a5fa">Reader r</text>
  <rect x="240" y="196" width="220" height="28" rx="3" fill="#1e293b"/>
  <text x="350" y="213" text-anchor="middle" font-size="11" fill="#34d399">Env r</text>
  <rect x="470" y="196" width="220" height="28" rx="3" fill="#1e293b"/>
  <text x="580" y="213" text-anchor="middle" font-size="9" fill="#94a3b8">&#916; &#8868; &#928; (diagonal-produced)</text>

  <rect x="10" y="228" width="220" height="26" rx="3" fill="#172554"/>
  <text x="120" y="244" text-anchor="middle" font-size="11" fill="#60a5fa">Writer w</text>
  <rect x="240" y="228" width="220" height="26" rx="3" fill="#172554"/>
  <text x="350" y="244" text-anchor="middle" font-size="11" fill="#34d399">Traced w</text>
  <rect x="470" y="228" width="220" height="26" rx="3" fill="#172554"/>
  <text x="580" y="244" text-anchor="middle" font-size="9" fill="#94a3b8">w -> a (Monoid w)</text>
</svg>