<svg xmlns="http://www.w3.org/2000/svg" width="680" height="380" font-family="monospace,'JetBrains Mono',Arial,sans-serif">
  <rect width="680" height="380" fill="#ffffff" rx="10"/>
  <text x="340" y="28" text-anchor="middle" font-size="14" font-weight="bold" fill="#334155">Ierarkhiya komonad v Haskell</text>

  <!-- Endofunctor W (vershina) -->
  <rect x="220" y="45" width="240" height="50" rx="6" fill="#f1f5f9" stroke="#7c3aed" stroke-width="2"/>
  <text x="340" y="65" text-anchor="middle" font-size="12" font-weight="bold" fill="#7c3aed">Comonad W</text>
  <text x="340" y="82" text-anchor="middle" font-size="9" fill="#64748b">extract, extend, duplicate</text>
  <text x="340" y="95" text-anchor="middle" font-size="9" fill="#64748b">W : Hask -&gt; Hask</text>

  <!-- Strelki -->
  <line x1="290" y1="95" x2="155" y2="140" stroke="#cbd5e1" stroke-width="1.5"/>
  <line x1="340" y1="95" x2="340" y2="140" stroke="#cbd5e1" stroke-width="1.5"/>
  <line x1="390" y1="95" x2="525" y2="140" stroke="#cbd5e1" stroke-width="1.5"/>

  <!-- Uroveny 2 -->
  <rect x="60" y="140" width="165" height="50" rx="5" fill="#f1f5f9" stroke="#059669" stroke-width="1.5"/>
  <text x="142" y="160" text-anchor="middle" font-size="11" font-weight="bold" fill="#059669">Store s</text>
  <text x="142" y="175" text-anchor="middle" font-size="9" fill="#64748b">s -&gt; a, s</text>
  <text x="142" y="188" text-anchor="middle" font-size="9" fill="#64748b">(dual&#39; State)</text>

  <rect x="257" y="140" width="165" height="50" rx="5" fill="#f1f5f9" stroke="#059669" stroke-width="1.5"/>
  <text x="340" y="160" text-anchor="middle" font-size="11" font-weight="bold" fill="#059669">Env r</text>
  <text x="340" y="175" text-anchor="middle" font-size="9" fill="#64748b">(r, a)</text>
  <text x="340" y="188" text-anchor="middle" font-size="9" fill="#64748b">(dual&#39; Reader)</text>

  <rect x="455" y="140" width="165" height="50" rx="5" fill="#f1f5f9" stroke="#059669" stroke-width="1.5"/>
  <text x="537" y="160" text-anchor="middle" font-size="11" font-weight="bold" fill="#059669">Traced w</text>
  <text x="537" y="175" text-anchor="middle" font-size="9" fill="#64748b">w -&gt; a</text>
  <text x="537" y="188" text-anchor="middle" font-size="9" fill="#64748b">(dual&#39; Writer)</text>

  <!-- Uroveny 3 -->
  <line x1="142" y1="190" x2="142" y2="240" stroke="#cbd5e1" stroke-width="1.2" stroke-dasharray="4,3"/>
  <line x1="340" y1="190" x2="340" y2="240" stroke="#cbd5e1" stroke-width="1.2" stroke-dasharray="4,3"/>
  <line x1="537" y1="190" x2="537" y2="240" stroke="#cbd5e1" stroke-width="1.2" stroke-dasharray="4,3"/>

  <rect x="50" y="240" width="180" height="40" rx="4" fill="#172554" stroke="#2563eb" stroke-width="1.2"/>
  <text x="140" y="255" text-anchor="middle" font-size="10" fill="#2563eb">Stream</text>
  <text x="140" y="270" text-anchor="middle" font-size="9" fill="#64748b">beskon. posledovatel&#39;nost&#39;</text>

  <rect x="255" y="240" width="170" height="40" rx="4" fill="#172554" stroke="#2563eb" stroke-width="1.2"/>
  <text x="340" y="255" text-anchor="middle" font-size="10" fill="#2563eb">NonEmpty</text>
  <text x="340" y="270" text-anchor="middle" font-size="9" fill="#64748b">nepostoyannyj spisok</text>

  <rect x="458" y="240" width="170" height="40" rx="4" fill="#172554" stroke="#2563eb" stroke-width="1.2"/>
  <text x="543" y="255" text-anchor="middle" font-size="10" fill="#2563eb">Zipper</text>
  <text x="543" y="270" text-anchor="middle" font-size="9" fill="#64748b">fokusirovka na pozitsii</text>

  <!-- Zakony -->
  <rect x="20" y="305" width="640" height="62" rx="6" fill="#f1f5f9" stroke="#cbd5e1"/>
  <text x="340" y="322" text-anchor="middle" font-size="11" font-weight="bold" fill="#334155">Zakony komonady</text>
  <text x="340" y="340" text-anchor="middle" font-size="10" fill="#64748b">extract . extend f = f</text>
  <text x="340" y="355" text-anchor="middle" font-size="10" fill="#64748b">extend extract = id</text>
  <text x="340" y="362" text-anchor="middle" font-size="9" fill="#64748b">extend f . extend g = extend (f . extend g)</text>
</svg>