<svg xmlns="http://www.w3.org/2000/svg" width="720" height="480" font-family="monospace,'JetBrains Mono',Arial,sans-serif">
  <rect width="720" height="480" fill="#0f172a" rx="10"/>
  <text x="360" y="28" text-anchor="middle" font-size="14" font-weight="bold" fill="#e2e8f0">Ierarkhiya monad v Haskell</text>

  <!-- Monad (vershina) -->
  <rect x="270" y="45" width="180" height="44" rx="6" fill="#1e293b" stroke="#a78bfa" stroke-width="2"/>
  <text x="360" y="63" text-anchor="middle" font-size="12" font-weight="bold" fill="#a78bfa">Monad</text>
  <text x="360" y="80" text-anchor="middle" font-size="9" fill="#94a3b8">return, &gt;&gt;=, join, &gt;=&gt;</text>

  <!-- Strelki ot Monad -->
  <line x1="310" y1="89" x2="160" y2="128" stroke="#334155" stroke-width="1.5"/>
  <line x1="360" y1="89" x2="360" y2="128" stroke="#334155" stroke-width="1.5"/>
  <line x1="410" y1="89" x2="560" y2="128" stroke="#334155" stroke-width="1.5"/>

  <!-- Uroveny 2: Maybe, Either, [] -->
  <rect x="80" y="128" width="150" height="44" rx="5" fill="#1e293b" stroke="#60a5fa" stroke-width="1.5"/>
  <text x="155" y="147" text-anchor="middle" font-size="11" font-weight="bold" fill="#60a5fa">Maybe</text>
  <text x="155" y="163" text-anchor="middle" font-size="9" fill="#94a3b8">1 + a (proval)</text>

  <rect x="280" y="128" width="160" height="44" rx="5" fill="#1e293b" stroke="#60a5fa" stroke-width="1.5"/>
  <text x="360" y="147" text-anchor="middle" font-size="11" font-weight="bold" fill="#60a5fa">Either e</text>
  <text x="360" y="163" text-anchor="middle" font-size="9" fill="#94a3b8">e + a (s ob"yasneniem)</text>

  <rect x="490" y="128" width="140" height="44" rx="5" fill="#1e293b" stroke="#60a5fa" stroke-width="1.5"/>
  <text x="560" y="147" text-anchor="middle" font-size="11" font-weight="bold" fill="#60a5fa">[] (List)</text>
  <text x="560" y="163" text-anchor="middle" font-size="9" fill="#94a3b8">P(a) (nedeterminizm)</text>

  <!-- Maybe -> isomorfno Either () a -->
  <text x="155" y="188" text-anchor="middle" font-size="9" fill="#94a3b8">&#8773; Either () a</text>

  <!-- Strelki ot Maybe k State/Reader/Writer -->
  <line x1="200" y1="172" x2="120" y2="248" stroke="#334155" stroke-width="1.2" stroke-dasharray="4,3"/>
  <line x1="360" y1="172" x2="360" y2="248" stroke="#334155" stroke-width="1.2" stroke-dasharray="4,3"/>
  <line x1="490" y1="172" x2="600" y2="248" stroke="#334155" stroke-width="1.2" stroke-dasharray="4,3"/>

  <!-- Uroveny 3: State, Reader, Writer -->
  <rect x="35" y="248" width="145" height="44" rx="5" fill="#172554" stroke="#34d399" stroke-width="1.5"/>
  <text x="112" y="265" text-anchor="middle" font-size="11" font-weight="bold" fill="#34d399">State s</text>
  <text x="112" y="281" text-anchor="middle" font-size="9" fill="#94a3b8">s -&gt; (a, s)</text>

  <rect x="285" y="248" width="150" height="44" rx="5" fill="#172554" stroke="#34d399" stroke-width="1.5"/>
  <text x="360" y="265" text-anchor="middle" font-size="11" font-weight="bold" fill="#34d399">Reader r</text>
  <text x="360" y="281" text-anchor="middle" font-size="9" fill="#94a3b8">r -&gt; a</text>

  <rect x="540" y="248" width="145" height="44" rx="5" fill="#172554" stroke="#34d399" stroke-width="1.5"/>
  <text x="612" y="265" text-anchor="middle" font-size="11" font-weight="bold" fill="#34d399">Writer w</text>
  <text x="612" y="281" text-anchor="middle" font-size="9" fill="#94a3b8">(a, w)</text>

  <!-- RWS -->
  <line x1="112" y1="292" x2="280" y2="330" stroke="#334155" stroke-width="1.2"/>
  <line x1="360" y1="292" x2="360" y2="330" stroke="#334155" stroke-width="1.2"/>
  <line x1="612" y1="292" x2="440" y2="330" stroke="#334155" stroke-width="1.2"/>
  <rect x="290" y="330" width="140" height="34" rx="5" fill="#1e293b" stroke="#f59e0b" stroke-width="1.5"/>
  <text x="360" y="354" text-anchor="middle" font-size="11" font-weight="bold" fill="#f59e0b">RWS = R+W+S</text>

  <!-- IO, ST, STM, Cont -->
  <line x1="180" y1="292" x2="60" y2="390" stroke="#334155" stroke-width="1.2" stroke-dasharray="4,3"/>
  <line x1="540" y1="292" x2="660" y2="390" stroke="#334155" stroke-width="1.2" stroke-dasharray="4,3"/>

  <rect x="20" y="390" width="100" height="36" rx="4" fill="#1e293b" stroke="#fb923c" stroke-width="1"/>
  <text x="70" y="406" text-anchor="middle" font-size="10" font-weight="bold" fill="#fb923c">IO</text>
  <text x="70" y="420" text-anchor="middle" font-size="8" fill="#94a3b8">RealWorld</text>

  <rect x="135" y="390" width="100" height="36" rx="4" fill="#1e293b" stroke="#fb923c" stroke-width="1"/>
  <text x="185" y="406" text-anchor="middle" font-size="10" font-weight="bold" fill="#fb923c">ST s</text>
  <text x="185" y="420" text-anchor="middle" font-size="8" fill="#94a3b8">Safe mutable</text>

  <rect x="250" y="390" width="100" height="36" rx="4" fill="#1e293b" stroke="#fb923c" stroke-width="1"/>
  <text x="300" y="406" text-anchor="middle" font-size="10" font-weight="bold" fill="#fb923c">STM</text>
  <text x="300" y="420" text-anchor="middle" font-size="8" fill="#94a3b8">Atom. transakts.</text>

  <rect x="370" y="390" width="100" height="36" rx="4" fill="#1e293b" stroke="#fb923c" stroke-width="1"/>
  <text x="420" y="406" text-anchor="middle" font-size="10" font-weight="bold" fill="#fb923c">Cont r</text>
  <text x="420" y="420" text-anchor="middle" font-size="8" fill="#94a3b8">Prodolzheniya</text>

  <rect x="490" y="390" width="100" height="36" rx="4" fill="#1e293b" stroke="#fb923c" stroke-width="1"/>
  <text x="540" y="406" text-anchor="middle" font-size="10" font-weight="bold" fill="#fb923c">Free f</text>
  <text x="540" y="420" text-anchor="middle" font-size="8" fill="#94a3b8">DSL/Interpret.</text>

  <rect x="605" y="390" width="100" height="36" rx="4" fill="#1e293b" stroke="#fb923c" stroke-width="1"/>
  <text x="655" y="406" text-anchor="middle" font-size="10" font-weight="bold" fill="#fb923c">Parser</text>
  <text x="655" y="420" text-anchor="middle" font-size="8" fill="#94a3b8">&#8773;StateT Maybe</text>

  <!-- Legenda -->
  <rect x="20" y="445" width="680" height="28" rx="4" fill="#1e293b" stroke="#334155"/>
  <text x="360" y="458" text-anchor="middle" font-size="9" fill="#94a3b8">Transformery monad: MaybeT, ExceptT, StateT, ReaderT, WriterT, ContT</text>
  <text x="360" y="469" text-anchor="middle" font-size="9" fill="#94a3b8">pozvolyayut kombinirovat effekty v odnom steke</text>
</svg>