<svg xmlns="http://www.w3.org/2000/svg" width="680" height="216" viewBox="0 0 680 216" font-family="system-ui, sans-serif">
<rect width="680" height="216" fill="#ffffff" rx="8"/>
<text x="150" y="20" text-anchor="middle" font-size="12" font-weight="700" fill="#3a4a96">Unit:  &#951;<tspan dy="2" font-size="8">a</tspan><tspan dy="-2"> : a &#8594; G(F a)  universal</tspan></text>
<text x="525" y="20" text-anchor="middle" font-size="12" font-weight="700" fill="#2f6f54">Counit:  &#949;<tspan dy="2" font-size="8">b</tspan><tspan dy="-2"> : F(G b) &#8594; b  couniversal</tspan></text>
<text x="100" y="37" text-anchor="middle" font-size="9" fill="#8a93a3">in C</text>
<text x="257" y="37" text-anchor="middle" font-size="9" fill="#8a93a3">in D</text>
<text x="462" y="37" text-anchor="middle" font-size="9" fill="#8a93a3">in D</text>
<text x="621" y="37" text-anchor="middle" font-size="9" fill="#8a93a3">in C</text>
<rect x="40" y="46" width="30" height="24" rx="8" fill="#fff" stroke="#475569" stroke-width="2"/><text x="55" y="63" text-anchor="middle" font-size="13" fill="#0f172a">a</text>
<rect x="138" y="44" width="52" height="28" rx="9" fill="#fff" stroke="#5872c9" stroke-width="2.5"/><text x="164" y="63" text-anchor="middle" font-size="12" fill="#3a4a96" font-weight="700">G F a</text>
<rect x="142" y="150" width="44" height="26" rx="8" fill="#fff" stroke="#475569" stroke-width="2"/><text x="164" y="168" text-anchor="middle" font-size="13" fill="#0f172a">G b</text>
<line x1="70" y1="58" x2="132" y2="58" stroke="#5872c9" stroke-width="2.4"/><polygon points="138,58 129,54 129,62" fill="#5872c9"/><text x="100" y="50" text-anchor="middle" font-size="10.5" font-weight="700" fill="#3a4a96">&#951;<tspan dy="2" font-size="8">a</tspan></text>
<line x1="55" y1="70" x2="147" y2="149" stroke="#8a93a3" stroke-width="1.7"/><polygon points="151,152 141,150 144,143" fill="#8a93a3"/><text x="80" y="124" text-anchor="middle" font-size="10.5" fill="#475569">f</text>
<line x1="164" y1="72" x2="164" y2="146" stroke="#8a93a3" stroke-width="1.7"/><polygon points="164,150 160,141 168,141" fill="#8a93a3"/><text x="181" y="114" text-anchor="middle" font-size="10.5" fill="#475569">G g</text>
<rect x="236" y="44" width="42" height="28" rx="9" fill="#fff" stroke="#475569" stroke-width="2"/><text x="257" y="63" text-anchor="middle" font-size="13" fill="#0f172a">F a</text>
<rect x="242" y="150" width="30" height="26" rx="8" fill="#fff" stroke="#475569" stroke-width="2"/><text x="257" y="168" text-anchor="middle" font-size="13" fill="#0f172a">b</text>
<line x1="257" y1="72" x2="257" y2="146" stroke="#5872c9" stroke-width="2" stroke-dasharray="5,3"/><polygon points="257,150 253,141 261,141" fill="#5872c9"/><text x="271" y="114" text-anchor="middle" font-size="10.5" font-weight="700" fill="#3a4a96">g</text>
<line x1="350" y1="42" x2="350" y2="182" stroke="#e2e8f0"/>
<rect x="400" y="44" width="42" height="28" rx="9" fill="#fff" stroke="#475569" stroke-width="2"/><text x="421" y="63" text-anchor="middle" font-size="13" fill="#0f172a">F a</text>
<rect x="498" y="44" width="52" height="28" rx="9" fill="#fff" stroke="#3f9d77" stroke-width="2.5"/><text x="524" y="63" text-anchor="middle" font-size="12" fill="#2f6f54" font-weight="700">F G b</text>
<rect x="509" y="150" width="30" height="26" rx="8" fill="#fff" stroke="#475569" stroke-width="2"/><text x="524" y="168" text-anchor="middle" font-size="13" fill="#0f172a">b</text>
<line x1="442" y1="58" x2="492" y2="58" stroke="#8a93a3" stroke-width="1.7"/><polygon points="498,58 489,54 489,62" fill="#8a93a3"/><text x="468" y="50" text-anchor="middle" font-size="10.5" fill="#475569">F f</text>
<line x1="421" y1="72" x2="513" y2="149" stroke="#8a93a3" stroke-width="1.7"/><polygon points="517,152 507,150 510,143" fill="#8a93a3"/><text x="446" y="124" text-anchor="middle" font-size="10.5" fill="#475569">g</text>
<line x1="524" y1="72" x2="524" y2="146" stroke="#3f9d77" stroke-width="2.4"/><polygon points="524,150 520,141 528,141" fill="#3f9d77"/><text x="541" y="114" text-anchor="middle" font-size="10.5" font-weight="700" fill="#2f6f54">&#949;<tspan dy="2" font-size="8">b</tspan></text>
<rect x="606" y="46" width="30" height="24" rx="8" fill="#fff" stroke="#475569" stroke-width="2"/><text x="621" y="63" text-anchor="middle" font-size="13" fill="#0f172a">a</text>
<rect x="599" y="150" width="44" height="26" rx="8" fill="#fff" stroke="#475569" stroke-width="2"/><text x="621" y="168" text-anchor="middle" font-size="13" fill="#0f172a">G b</text>
<line x1="621" y1="72" x2="621" y2="146" stroke="#3f9d77" stroke-width="2" stroke-dasharray="5,3"/><polygon points="621,150 617,141 625,141" fill="#3f9d77"/><text x="635" y="114" text-anchor="middle" font-size="10.5" font-weight="700" fill="#2f6f54">f</text>
<line x1="60" y1="194" x2="620" y2="194" stroke="#e2e8f0"/>
<text x="340" y="210" text-anchor="middle" font-size="10" fill="#8a93a3">dashed = unique mediator (g in D, f in C); its image (G g, F f) completes the triangle  &#183;  mirror = C^op</text>
</svg>
