<svg xmlns="http://www.w3.org/2000/svg" width="580" height="250" viewBox="0 0 580 250" font-family="system-ui, sans-serif">
<rect width="580" height="250" fill="#ffffff" rx="8"/>
<text x="151" y="28" text-anchor="middle" font-size="13" font-weight="700" fill="#3a4a96">Initial F-algebra &#8594; cata</text>
<text x="429" y="28" text-anchor="middle" font-size="13" font-weight="700" fill="#2f6f54">Final F-coalgebra &#8594; ana</text>
<g font-size="12.5" fill="#0f172a">
<rect x="60" y="56" width="62" height="28" rx="8" fill="#fff" stroke="#5872c9" stroke-width="2"/><text x="91" y="74" text-anchor="middle">F(&#956;F)</text>
<rect x="196" y="56" width="56" height="28" rx="8" fill="#fff" stroke="#5872c9" stroke-width="2"/><text x="224" y="74" text-anchor="middle">F a</text>
<rect x="64" y="152" width="54" height="28" rx="8" fill="#fff" stroke="#5872c9" stroke-width="2.5"/><text x="91" y="170" text-anchor="middle">&#956;F</text>
<rect x="200" y="152" width="48" height="28" rx="8" fill="#fff" stroke="#5872c9" stroke-width="2"/><text x="224" y="170" text-anchor="middle">a</text>
</g>
<line x1="124" y1="70" x2="190" y2="70" stroke="#8a93a3" stroke-width="2"/><polygon points="196,70 187,66 187,74" fill="#8a93a3"/><text x="158" y="62" text-anchor="middle" font-size="10" fill="#475569">F h</text>
<line x1="91" y1="86" x2="91" y2="146" stroke="#5872c9" stroke-width="2.2"/><polygon points="91,152 87,143 95,143" fill="#5872c9"/><text x="77" y="121" text-anchor="middle" font-size="10.5" font-weight="700" fill="#3a4a96">in</text>
<line x1="224" y1="86" x2="224" y2="146" stroke="#8a93a3" stroke-width="2"/><polygon points="224,152 220,143 228,143" fill="#8a93a3"/><text x="237" y="121" text-anchor="middle" font-size="10.5" fill="#475569">f</text>
<line x1="124" y1="166" x2="194" y2="166" stroke="#5872c9" stroke-width="2.4" stroke-dasharray="5,3"/><polygon points="200,166 191,162 191,170" fill="#5872c9"/><text x="160" y="195" text-anchor="middle" font-size="10.5" font-weight="700" fill="#3a4a96">h = cata f</text>
<g font-size="12.5" fill="#0f172a">
<rect x="342" y="56" width="48" height="28" rx="8" fill="#fff" stroke="#3f9d77" stroke-width="2"/><text x="366" y="74" text-anchor="middle">a</text>
<rect x="478" y="56" width="54" height="28" rx="8" fill="#fff" stroke="#3f9d77" stroke-width="2.5"/><text x="505" y="74" text-anchor="middle">&#957;F</text>
<rect x="340" y="152" width="56" height="28" rx="8" fill="#fff" stroke="#3f9d77" stroke-width="2"/><text x="368" y="170" text-anchor="middle">F a</text>
<rect x="474" y="152" width="62" height="28" rx="8" fill="#fff" stroke="#3f9d77" stroke-width="2"/><text x="505" y="170" text-anchor="middle">F(&#957;F)</text>
</g>
<line x1="392" y1="70" x2="472" y2="70" stroke="#3f9d77" stroke-width="2.4" stroke-dasharray="5,3"/><polygon points="478,70 469,66 469,74" fill="#3f9d77"/><text x="434" y="62" text-anchor="middle" font-size="10.5" font-weight="700" fill="#2f6f54">h = ana g</text>
<line x1="366" y1="86" x2="366" y2="146" stroke="#8a93a3" stroke-width="2"/><polygon points="366,152 362,143 370,143" fill="#8a93a3"/><text x="352" y="121" text-anchor="middle" font-size="10.5" fill="#475569">g</text>
<line x1="505" y1="86" x2="505" y2="146" stroke="#3f9d77" stroke-width="2.2"/><polygon points="505,152 501,143 509,143" fill="#3f9d77"/><text x="520" y="121" text-anchor="middle" font-size="10.5" font-weight="700" fill="#2f6f54">out</text>
<line x1="398" y1="166" x2="468" y2="166" stroke="#8a93a3" stroke-width="2"/><polygon points="474,166 465,162 465,170" fill="#8a93a3"/><text x="434" y="195" text-anchor="middle" font-size="10" fill="#475569">F h</text>
<line x1="60" y1="214" x2="520" y2="214" stroke="#e2e8f0"/>
<text x="290" y="231" text-anchor="middle" font-size="10.5" fill="#8a93a3">square commutes, h unique &#183; final coalgebra = initial algebra in C^op</text>
<text x="290" y="245" text-anchor="middle" font-size="10" fill="#8a93a3">Lambek: in, out are isomorphisms  (&#956;F &#8773; F(&#956;F))</text>
</svg>
