<svg xmlns="http://www.w3.org/2000/svg" width="700" height="230" viewBox="0 0 700 230" font-family="system-ui, sans-serif"><rect width="700" height="230" fill="#ffffff" rx="8"/><g transform="translate(375 0)"><text x="160" y="22" text-anchor="middle" font-size="12.5" font-weight="700" fill="#3a4a96">Coequalizer  q</text><rect x="48" y="48" width="30" height="24" rx="8" fill="#fff" stroke="#475569" stroke-width="2"/><text x="63" y="65" text-anchor="middle" font-size="13" fill="#0f172a">a</text><rect x="128" y="48" width="30" height="24" rx="8" fill="#fff" stroke="#475569" stroke-width="2"/><text x="143" y="65" text-anchor="middle" font-size="13" fill="#0f172a">b</text><rect x="212" y="46" width="44" height="28" rx="9" fill="#fff" stroke="#5872c9" stroke-width="2.5"/><text x="234" y="65" text-anchor="middle" font-size="13" fill="#3a4a96" font-weight="700">q</text><rect x="219" y="150" width="30" height="26" rx="8" fill="#fff" stroke="#475569" stroke-width="2"/><text x="234" y="168" text-anchor="middle" font-size="13" fill="#0f172a">x</text><line x1="78" y1="55" x2="123" y2="55" stroke="#8a93a3" stroke-width="1.8"/><polygon points="128,55 120,51 120,59" fill="#8a93a3"/><text x="100" y="48" text-anchor="middle" font-size="10.5" fill="#475569">f</text><line x1="78" y1="65" x2="123" y2="65" stroke="#8a93a3" stroke-width="1.8"/><polygon points="128,65 120,61 120,69" fill="#8a93a3"/><text x="100" y="78" text-anchor="middle" font-size="10.5" fill="#475569">g</text><line x1="158" y1="60" x2="207" y2="60" stroke="#5872c9" stroke-width="2"/><polygon points="212,60 204,56 204,64" fill="#5872c9"/><text x="184" y="52" text-anchor="middle" font-size="10.5" font-weight="700" fill="#3a4a96">coeq</text><line x1="148" y1="72" x2="223" y2="148" stroke="#8a93a3" stroke-width="1.8"/><polygon points="227,151 217,149 221,143" fill="#8a93a3"/><text x="170" y="120" text-anchor="middle" font-size="10.5" fill="#475569">k</text><line x1="234" y1="74" x2="234" y2="146" stroke="#5872c9" stroke-width="2" stroke-dasharray="5,3"/><polygon points="234,150 230,141 238,141" fill="#5872c9"/><text x="246" y="116" text-anchor="middle" font-size="10.5" font-weight="700" fill="#3a4a96">u</text></g><g transform="translate(-375 0)"><text x="535" y="22" text-anchor="middle" font-size="12.5" font-weight="700" fill="#2f6f54">Equalizer  e</text><rect x="451" y="48" width="30" height="24" rx="9" fill="#fff" stroke="#3f9d77" stroke-width="2.5"/><text x="466" y="65" text-anchor="middle" font-size="13" fill="#2f6f54" font-weight="700">e</text><rect x="541" y="48" width="30" height="24" rx="8" fill="#fff" stroke="#475569" stroke-width="2"/><text x="556" y="65" text-anchor="middle" font-size="13" fill="#0f172a">a</text><rect x="621" y="48" width="30" height="24" rx="8" fill="#fff" stroke="#475569" stroke-width="2"/><text x="636" y="65" text-anchor="middle" font-size="13" fill="#0f172a">b</text><rect x="451" y="150" width="30" height="26" rx="8" fill="#fff" stroke="#475569" stroke-width="2"/><text x="466" y="168" text-anchor="middle" font-size="13" fill="#0f172a">x</text><line x1="481" y1="60" x2="536" y2="60" stroke="#3f9d77" stroke-width="2"/><polygon points="541,60 533,56 533,64" fill="#3f9d77"/><text x="510" y="52" text-anchor="middle" font-size="10.5" font-weight="700" fill="#2f6f54">eq</text><line x1="571" y1="55" x2="616" y2="55" stroke="#8a93a3" stroke-width="1.8"/><polygon points="621,55 613,51 613,59" fill="#8a93a3"/><text x="593" y="48" text-anchor="middle" font-size="10.5" fill="#475569">f</text><line x1="571" y1="65" x2="616" y2="65" stroke="#8a93a3" stroke-width="1.8"/><polygon points="621,65 613,61 613,69" fill="#8a93a3"/><text x="593" y="78" text-anchor="middle" font-size="10.5" fill="#475569">g</text><line x1="481" y1="156" x2="544" y2="74" stroke="#8a93a3" stroke-width="1.8"/><polygon points="547,70 539,75 545,80" fill="#8a93a3"/><text x="528" y="124" text-anchor="middle" font-size="10.5" fill="#475569">h</text><line x1="466" y1="148" x2="466" y2="76" stroke="#3f9d77" stroke-width="2" stroke-dasharray="5,3"/><polygon points="466,72 462,81 470,81" fill="#3f9d77"/><text x="478" y="116" text-anchor="middle" font-size="10.5" font-weight="700" fill="#2f6f54">u</text></g><line x1="60" y1="200" x2="640" y2="200" stroke="#e2e8f0"/><text x="350" y="216" text-anchor="middle" font-size="10" fill="#8a93a3">unique u (dashed): f&#8728;h = g&#8728;h &#8658; h factors via e; k&#8728;f = k&#8728;g &#8658; k factors via q  &#183;  reverse arrows = C^op</text></svg>
