<svg xmlns="http://www.w3.org/2000/svg" width="600" height="200" viewBox="0 0 600 200" font-family="system-ui, sans-serif"><rect width="600" height="200" fill="#ffffff" rx="8"/><g transform="translate(300 0)"><text x="150" y="24" text-anchor="middle" font-size="13" font-weight="700" fill="#3a4a96">Colimit:  colim D = Lan<tspan dy="3" font-size="9">!</tspan><tspan dy="-3"> D</tspan></text><g font-size="13" fill="#0f172a">
<rect x="62" y="46" width="34" height="26" rx="8" fill="#fff" stroke="#5872c9" stroke-width="2"/><text x="79" y="64" text-anchor="middle">J</text>
<rect x="206" y="46" width="32" height="26" rx="8" fill="#fff" stroke="#5872c9" stroke-width="2"/><text x="222" y="64" text-anchor="middle">1</text>
<rect x="133" y="148" width="34" height="26" rx="8" fill="#fff" stroke="#5872c9" stroke-width="2"/><text x="150" y="166" text-anchor="middle">C</text>
</g><line x1="98" y1="59" x2="200" y2="59" stroke="#8a93a3" stroke-width="2"/><polygon points="206,59 197,55 197,63" fill="#8a93a3"/><text x="150" y="51" text-anchor="middle" font-size="11" fill="#475569">!</text><line x1="83" y1="74" x2="140" y2="139" stroke="#8a93a3" stroke-width="2"/><polygon points="145,145 134,142 142,135" fill="#8a93a3"/><text x="98" y="116" text-anchor="middle" font-size="11" fill="#475569">D</text><line x1="216" y1="74" x2="162" y2="139" stroke="#5872c9" stroke-width="2.2" stroke-dasharray="5,3"/><polygon points="155,145 158,135 166,142" fill="#5872c9"/><text x="206" y="112" text-anchor="middle" font-size="11" font-weight="700" fill="#3a4a96">Lan<tspan dy="3" font-size="8">!</tspan><tspan dy="-3"> D</tspan></text><text x="150" y="106" text-anchor="middle" font-size="12" fill="#3a4a96">&#951; &#8658;</text></g><g transform="translate(-300 0)"><text x="450" y="24" text-anchor="middle" font-size="13" font-weight="700" fill="#2f6f54">Limit:  lim D = Ran<tspan dy="3" font-size="9">!</tspan><tspan dy="-3"> D</tspan></text><g font-size="13" fill="#0f172a">
<rect x="362" y="46" width="34" height="26" rx="8" fill="#fff" stroke="#3f9d77" stroke-width="2"/><text x="379" y="64" text-anchor="middle">J</text>
<rect x="506" y="46" width="32" height="26" rx="8" fill="#fff" stroke="#3f9d77" stroke-width="2"/><text x="522" y="64" text-anchor="middle">1</text>
<rect x="433" y="148" width="34" height="26" rx="8" fill="#fff" stroke="#3f9d77" stroke-width="2"/><text x="450" y="166" text-anchor="middle">C</text>
</g><line x1="398" y1="59" x2="500" y2="59" stroke="#8a93a3" stroke-width="2"/><polygon points="506,59 497,55 497,63" fill="#8a93a3"/><text x="450" y="51" text-anchor="middle" font-size="11" fill="#475569">!</text><line x1="383" y1="74" x2="440" y2="139" stroke="#8a93a3" stroke-width="2"/><polygon points="445,145 434,142 442,135" fill="#8a93a3"/><text x="398" y="116" text-anchor="middle" font-size="11" fill="#475569">D</text><line x1="516" y1="74" x2="462" y2="139" stroke="#3f9d77" stroke-width="2.2" stroke-dasharray="5,3"/><polygon points="455,145 458,135 466,142" fill="#3f9d77"/><text x="505" y="112" text-anchor="middle" font-size="11" font-weight="700" fill="#2f6f54">Ran<tspan dy="3" font-size="8">!</tspan><tspan dy="-3"> D</tspan></text><text x="450" y="106" text-anchor="middle" font-size="12" fill="#2f6f54">&#8656; &#949;</text></g><text x="300" y="192" text-anchor="middle" font-size="10" fill="#8a93a3">! : J &#8594; 1; extension 1 &#8594; C is the (co)limit; &#951;/&#949; = universal cocone/cone</text></svg>
