<svg xmlns="http://www.w3.org/2000/svg" width="560" height="226" viewBox="0 0 560 226" font-family="system-ui, sans-serif"><rect width="560" height="226" fill="#ffffff" rx="8"/><g transform="translate(260 0)"><text x="150" y="22" text-anchor="middle" font-size="12.5" font-weight="700" fill="#3a4a96">Comonad  D  (arrows out)</text><rect x="118" y="40" width="48" height="26" rx="9" fill="#fff" stroke="#5872c9" stroke-width="2"/><text x="142" y="58" text-anchor="middle" font-size="12" fill="#3a4a96" font-weight="700">D D a</text><rect x="120" y="100" width="44" height="26" rx="9" fill="#fff" stroke="#5872c9" stroke-width="2.5"/><text x="142" y="118" text-anchor="middle" font-size="12" fill="#3a4a96" font-weight="700">D a</text><rect x="125" y="162" width="34" height="26" rx="8" fill="#fff" stroke="#475569" stroke-width="2"/><text x="142" y="180" text-anchor="middle" font-size="13" fill="#0f172a">a</text><line x1="142" y1="98" x2="142" y2="68" stroke="#5872c9" stroke-width="2"/><polygon points="142,64 138,73 146,73" fill="#5872c9"/><text x="160" y="86" text-anchor="middle" font-size="10.5" font-weight="700" fill="#3a4a96">&#948;</text><line x1="142" y1="128" x2="142" y2="158" stroke="#5872c9" stroke-width="2"/><polygon points="142,162 138,153 146,153" fill="#5872c9"/><text x="160" y="148" text-anchor="middle" font-size="10.5" font-weight="700" fill="#3a4a96">&#949;</text><text x="142" y="206" text-anchor="middle" font-size="9.5" fill="#8a93a3">&#948; : D a &#8594; D&#178; a,  &#949; : D a &#8594; a</text></g><g transform="translate(-260 0)"><text x="410" y="22" text-anchor="middle" font-size="12.5" font-weight="700" fill="#2f6f54">Monad  T  (arrows in)</text><rect x="385" y="40" width="34" height="26" rx="8" fill="#fff" stroke="#475569" stroke-width="2"/><text x="402" y="58" text-anchor="middle" font-size="13" fill="#0f172a">a</text><rect x="380" y="100" width="44" height="26" rx="9" fill="#fff" stroke="#3f9d77" stroke-width="2.5"/><text x="402" y="118" text-anchor="middle" font-size="12" fill="#2f6f54" font-weight="700">T a</text><rect x="378" y="162" width="48" height="26" rx="9" fill="#fff" stroke="#3f9d77" stroke-width="2"/><text x="402" y="180" text-anchor="middle" font-size="12" fill="#2f6f54" font-weight="700">T T a</text><line x1="402" y1="68" x2="402" y2="98" stroke="#3f9d77" stroke-width="2"/><polygon points="402,102 398,93 406,93" fill="#3f9d77"/><text x="420" y="86" text-anchor="middle" font-size="10.5" font-weight="700" fill="#2f6f54">&#951;</text><line x1="402" y1="158" x2="402" y2="128" stroke="#3f9d77" stroke-width="2"/><polygon points="402,124 398,133 406,133" fill="#3f9d77"/><text x="420" y="148" text-anchor="middle" font-size="10.5" font-weight="700" fill="#2f6f54">&#956;</text><text x="402" y="206" text-anchor="middle" font-size="9.5" fill="#8a93a3">&#951; : a &#8594; T a,  &#956; : T&#178; a &#8594; T a</text></g><line x1="276" y1="40" x2="276" y2="186" stroke="#e2e8f0"/><text x="280" y="222" text-anchor="middle" font-size="10" fill="#8a93a3">reverse every arrow: (&#949;, &#948;) &#8596; (&#951;, &#956;)  &#183;  comonad = monad in C^op</text></svg>
