<svg xmlns="http://www.w3.org/2000/svg" width="560" height="185" viewBox="0 0 560 185" font-family="system-ui, sans-serif"><rect width="560" height="185" fill="#ffffff" rx="8"/><g transform="translate(260 0)"><text x="150" y="24" text-anchor="middle" font-size="13" font-weight="700" fill="#3a4a96">Pushout po = Lan<tspan dy="3" font-size="9">!</tspan></text><text x="96" y="42" text-anchor="middle" font-size="10" fill="#8a93a3">J (span)</text><rect x="66" y="46" width="62" height="30" rx="8" fill="#fff" stroke="#475569" stroke-width="2"/><circle cx="80" cy="61" r="3" fill="#475569"/><circle cx="100" cy="61" r="3" fill="#475569"/><circle cx="118" cy="61" r="3" fill="#475569"/><line x1="97" y1="61" x2="87" y2="61" stroke="#8a93a3" stroke-width="1.4"/><polygon points="84,61 89,59 89,63" fill="#8a93a3"/><line x1="103" y1="61" x2="113" y2="61" stroke="#8a93a3" stroke-width="1.4"/><polygon points="116,61 111,59 111,63" fill="#8a93a3"/><rect x="190" y="48" width="28" height="26" rx="8" fill="#fff" stroke="#475569" stroke-width="2"/><text x="204" y="66" text-anchor="middle" font-size="13" fill="#0f172a">1</text><rect x="187" y="122" width="34" height="26" rx="8" fill="#fff" stroke="#5872c9" stroke-width="2.5"/><text x="204" y="140" text-anchor="middle" font-size="13" fill="#0f172a">C</text><line x1="130" y1="61" x2="184" y2="61" stroke="#8a93a3" stroke-width="2"/><polygon points="190,61 181,57 181,65" fill="#8a93a3"/><text x="157" y="53" text-anchor="middle" font-size="11" fill="#475569">!</text><line x1="204" y1="76" x2="204" y2="116" stroke="#5872c9" stroke-width="2.2" stroke-dasharray="5,3"/><polygon points="204,122 200,113 208,113" fill="#5872c9"/><text x="240" y="100" text-anchor="middle" font-size="11" font-weight="700" fill="#3a4a96">= po</text></g><g transform="translate(-260 0)"><text x="410" y="24" text-anchor="middle" font-size="13" font-weight="700" fill="#2f6f54">Pullback pb = Ran<tspan dy="3" font-size="9">!</tspan></text><text x="356" y="42" text-anchor="middle" font-size="10" fill="#8a93a3">J (cospan)</text><rect x="326" y="46" width="62" height="30" rx="8" fill="#fff" stroke="#475569" stroke-width="2"/><circle cx="340" cy="61" r="3" fill="#475569"/><circle cx="360" cy="61" r="3" fill="#475569"/><circle cx="378" cy="61" r="3" fill="#475569"/><line x1="343" y1="61" x2="353" y2="61" stroke="#8a93a3" stroke-width="1.4"/><polygon points="356,61 351,59 351,63" fill="#8a93a3"/><line x1="375" y1="61" x2="367" y2="61" stroke="#8a93a3" stroke-width="1.4"/><polygon points="364,61 369,59 369,63" fill="#8a93a3"/><rect x="450" y="48" width="28" height="26" rx="8" fill="#fff" stroke="#475569" stroke-width="2"/><text x="464" y="66" text-anchor="middle" font-size="13" fill="#0f172a">1</text><rect x="447" y="122" width="34" height="26" rx="8" fill="#fff" stroke="#3f9d77" stroke-width="2.5"/><text x="464" y="140" text-anchor="middle" font-size="13" fill="#0f172a">C</text><line x1="390" y1="61" x2="444" y2="61" stroke="#8a93a3" stroke-width="2"/><polygon points="450,61 441,57 441,65" fill="#8a93a3"/><text x="417" y="53" text-anchor="middle" font-size="11" fill="#475569">!</text><line x1="464" y1="76" x2="464" y2="116" stroke="#3f9d77" stroke-width="2.2" stroke-dasharray="5,3"/><polygon points="464,122 460,113 468,113" fill="#3f9d77"/><text x="428" y="100" text-anchor="middle" font-size="11" font-weight="700" fill="#2f6f54">= pb</text></g><line x1="60" y1="162" x2="500" y2="162" stroke="#e2e8f0"/><text x="280" y="178" text-anchor="middle" font-size="10" fill="#8a93a3">J = span / cospan: colimit = pushout  &#183;  limit = pullback</text></svg>
