<svg xmlns="http://www.w3.org/2000/svg" width="560" height="185" viewBox="0 0 560 185" font-family="system-ui, sans-serif"><rect width="560" height="185" fill="#ffffff" rx="8"/><g transform="translate(260 0)"><text x="150" y="24" text-anchor="middle" font-size="13" font-weight="700" fill="#3a4a96">Coproduct a+b = Lan<tspan dy="3" font-size="9">!</tspan></text><text x="96" y="42" text-anchor="middle" font-size="10" fill="#8a93a3">J</text><rect x="74" y="48" width="44" height="26" rx="8" fill="#fff" stroke="#475569" stroke-width="2"/><circle cx="88" cy="61" r="3" fill="#475569"/><circle cx="104" cy="61" r="3" fill="#475569"/><rect x="188" y="48" width="28" height="26" rx="8" fill="#fff" stroke="#475569" stroke-width="2"/><text x="202" y="66" text-anchor="middle" font-size="13" fill="#0f172a">1</text><rect x="185" y="122" width="34" height="26" rx="8" fill="#fff" stroke="#5872c9" stroke-width="2.5"/><text x="202" y="140" text-anchor="middle" font-size="13" fill="#0f172a">C</text><line x1="120" y1="61" x2="182" y2="61" stroke="#8a93a3" stroke-width="2"/><polygon points="188,61 179,57 179,65" fill="#8a93a3"/><text x="151" y="53" text-anchor="middle" font-size="11" fill="#475569">!</text><line x1="202" y1="76" x2="202" y2="116" stroke="#5872c9" stroke-width="2.2" stroke-dasharray="5,3"/><polygon points="202,122 198,113 206,113" fill="#5872c9"/><text x="240" y="100" text-anchor="middle" font-size="11" font-weight="700" fill="#3a4a96">= a+b</text></g><g transform="translate(-260 0)"><text x="410" y="24" text-anchor="middle" font-size="13" font-weight="700" fill="#2f6f54">Product a&#215;b = Ran<tspan dy="3" font-size="9">!</tspan></text><text x="356" y="42" text-anchor="middle" font-size="10" fill="#8a93a3">J</text><rect x="334" y="48" width="44" height="26" rx="8" fill="#fff" stroke="#475569" stroke-width="2"/><circle cx="348" cy="61" r="3" fill="#475569"/><circle cx="364" cy="61" r="3" fill="#475569"/><rect x="448" y="48" width="28" height="26" rx="8" fill="#fff" stroke="#475569" stroke-width="2"/><text x="462" y="66" text-anchor="middle" font-size="13" fill="#0f172a">1</text><rect x="445" y="122" width="34" height="26" rx="8" fill="#fff" stroke="#3f9d77" stroke-width="2.5"/><text x="462" y="140" text-anchor="middle" font-size="13" fill="#0f172a">C</text><line x1="380" y1="61" x2="442" y2="61" stroke="#8a93a3" stroke-width="2"/><polygon points="448,61 439,57 439,65" fill="#8a93a3"/><text x="411" y="53" text-anchor="middle" font-size="11" fill="#475569">!</text><line x1="462" y1="76" x2="462" y2="116" stroke="#3f9d77" stroke-width="2.2" stroke-dasharray="5,3"/><polygon points="462,122 458,113 466,113" fill="#3f9d77"/><text x="418" y="100" text-anchor="middle" font-size="11" font-weight="700" fill="#2f6f54">= a&#215;b</text></g><line x1="60" y1="162" x2="500" y2="162" stroke="#e2e8f0"/><text x="280" y="178" text-anchor="middle" font-size="10" fill="#8a93a3">J = discrete pair (two objects, no arrows): colimit = coproduct  &#183;  limit = product</text></svg>
