<svg xmlns="http://www.w3.org/2000/svg" width="560" height="190" viewBox="0 0 560 190" font-family="system-ui, sans-serif"><rect width="560" height="190" fill="#ffffff" rx="8"/><g transform="translate(260 0)"><text x="155" y="24" text-anchor="middle" font-size="13" font-weight="700" fill="#3a4a96">Initial 0  (in C)</text><rect x="70" y="84" width="30" height="26" rx="8" fill="#fff" stroke="#5872c9" stroke-width="2.5"/><text x="85" y="102" text-anchor="middle" font-size="13" fill="#0f172a">0</text><rect x="208" y="50" width="34" height="24" rx="8" fill="#fff" stroke="#475569" stroke-width="2"/><text x="225" y="67" text-anchor="middle" font-size="12" fill="#0f172a">x</text><rect x="208" y="118" width="34" height="24" rx="8" fill="#fff" stroke="#475569" stroke-width="2"/><text x="225" y="135" text-anchor="middle" font-size="12" fill="#0f172a">y</text><line x1="103" y1="92" x2="202" y2="66" stroke="#5872c9" stroke-width="2"/><polygon points="208,64 198,63 201,71" fill="#5872c9"/><text x="158" y="70" text-anchor="middle" font-size="11" fill="#3a4a96">!</text><line x1="103" y1="102" x2="202" y2="126" stroke="#5872c9" stroke-width="2"/><polygon points="208,128 198,127 201,119" fill="#5872c9"/><text x="158" y="130" text-anchor="middle" font-size="11" fill="#3a4a96">!</text></g><g transform="translate(-260 0)"><text x="415" y="24" text-anchor="middle" font-size="13" font-weight="700" fill="#2f6f54">Terminal 1  (in C)</text><rect x="318" y="50" width="34" height="24" rx="8" fill="#fff" stroke="#475569" stroke-width="2"/><text x="335" y="67" text-anchor="middle" font-size="12" fill="#0f172a">x</text><rect x="318" y="118" width="34" height="24" rx="8" fill="#fff" stroke="#475569" stroke-width="2"/><text x="335" y="135" text-anchor="middle" font-size="12" fill="#0f172a">y</text><rect x="460" y="84" width="30" height="26" rx="8" fill="#fff" stroke="#3f9d77" stroke-width="2.5"/><text x="475" y="102" text-anchor="middle" font-size="13" fill="#0f172a">1</text><line x1="354" y1="64" x2="455" y2="92" stroke="#3f9d77" stroke-width="2"/><polygon points="461,94 451,93 454,85" fill="#3f9d77"/><text x="402" y="70" text-anchor="middle" font-size="11" fill="#2f6f54">!</text><line x1="354" y1="128" x2="455" y2="102" stroke="#3f9d77" stroke-width="2"/><polygon points="461,100 451,101 454,109" fill="#3f9d77"/><text x="402" y="130" text-anchor="middle" font-size="11" fill="#2f6f54">!</text></g><line x1="60" y1="160" x2="500" y2="160" stroke="#e2e8f0"/><text x="280" y="177" text-anchor="middle" font-size="10" fill="#8a93a3">unique  0 &#8594; x  for every x   &#183;   unique  x &#8594; 1  for every x   (reverse arrows: C^op)</text></svg>
