<svg xmlns="http://www.w3.org/2000/svg" width="560" height="300" viewBox="0 0 560 300" font-family="system-ui, sans-serif">
<rect width="560" height="300" fill="#ffffff" rx="8"/>
<text x="180" y="26" text-anchor="middle" font-size="13" font-weight="700" fill="#b8862e">Covariant F</text>
<text x="420" y="26" text-anchor="middle" font-size="13" font-weight="700" fill="#8f3f3c">Contravariant F&#8242;</text>
<text x="46" y="83" text-anchor="middle" font-size="15" font-weight="700" fill="#3a4a96">C</text>
<text x="46" y="213" text-anchor="middle" font-size="15" font-weight="700" fill="#2f6f54">D</text>
<rect x="80" y="46" width="200" height="62" rx="10" fill="#f7f8fa" stroke="#cbd5e1"/>
<rect x="320" y="46" width="200" height="62" rx="10" fill="#f7f8fa" stroke="#cbd5e1"/>
<circle cx="135" cy="80" r="14" fill="#fff" stroke="#5872c9" stroke-width="2.5"/><text x="135" y="85" text-anchor="middle" font-size="12" fill="#0f172a">a</text>
<circle cx="225" cy="80" r="14" fill="#fff" stroke="#5872c9" stroke-width="2.5"/><text x="225" y="85" text-anchor="middle" font-size="12" fill="#0f172a">b</text>
<line x1="154" y1="80" x2="199" y2="80" stroke="#8a93a3" stroke-width="2"/><polygon points="205,80 196,76 196,84" fill="#8a93a3"/><text x="180" y="72" text-anchor="middle" font-size="11" fill="#475569">f</text>
<circle cx="375" cy="80" r="14" fill="#fff" stroke="#5872c9" stroke-width="2.5"/><text x="375" y="85" text-anchor="middle" font-size="12" fill="#0f172a">a</text>
<circle cx="465" cy="80" r="14" fill="#fff" stroke="#5872c9" stroke-width="2.5"/><text x="465" y="85" text-anchor="middle" font-size="12" fill="#0f172a">b</text>
<line x1="394" y1="80" x2="439" y2="80" stroke="#8a93a3" stroke-width="2"/><polygon points="445,80 436,76 436,84" fill="#8a93a3"/><text x="418" y="72" text-anchor="middle" font-size="11" fill="#475569">f</text>
<line x1="180" y1="112" x2="180" y2="170" stroke="#d9a441" stroke-width="2.4"/><polygon points="180,176 175,166 185,166" fill="#d9a441"/><text x="194" y="146" font-size="12" font-weight="700" fill="#b8862e">F</text>
<line x1="420" y1="112" x2="420" y2="170" stroke="#c4625f" stroke-width="2.4"/><polygon points="420,176 415,166 425,166" fill="#c4625f"/><text x="434" y="146" font-size="12" font-weight="700" fill="#8f3f3c">F&#8242;</text>
<rect x="80" y="178" width="200" height="62" rx="10" fill="#f7f8fa" stroke="#cbd5e1"/>
<rect x="320" y="178" width="200" height="62" rx="10" fill="#f7f8fa" stroke="#cbd5e1"/>
<circle cx="135" cy="212" r="14" fill="#fff" stroke="#3f9d77" stroke-width="2.5"/><text x="135" y="217" text-anchor="middle" font-size="11" fill="#0f172a">Fa</text>
<circle cx="225" cy="212" r="14" fill="#fff" stroke="#3f9d77" stroke-width="2.5"/><text x="225" y="217" text-anchor="middle" font-size="11" fill="#0f172a">Fb</text>
<line x1="154" y1="212" x2="199" y2="212" stroke="#8a93a3" stroke-width="2"/><polygon points="205,212 196,208 196,216" fill="#8a93a3"/><text x="180" y="204" text-anchor="middle" font-size="11" fill="#475569">F f</text>
<circle cx="375" cy="212" r="14" fill="#fff" stroke="#3f9d77" stroke-width="2.5"/><text x="375" y="217" text-anchor="middle" font-size="11" fill="#0f172a">Fa</text>
<circle cx="465" cy="212" r="14" fill="#fff" stroke="#3f9d77" stroke-width="2.5"/><text x="465" y="217" text-anchor="middle" font-size="11" fill="#0f172a">Fb</text>
<line x1="446" y1="212" x2="401" y2="212" stroke="#8a93a3" stroke-width="2"/><polygon points="395,212 404,208 404,216" fill="#8a93a3"/><text x="420" y="204" text-anchor="middle" font-size="11" fill="#475569">F&#8242; f</text>
<line x1="80" y1="262" x2="520" y2="262" stroke="#e2e8f0"/>
<circle cx="120" cy="282" r="6" fill="#fff" stroke="#5872c9" stroke-width="2.5"/><text x="132" y="286" font-size="10.5" fill="#475569">C</text>
<circle cx="166" cy="282" r="6" fill="#fff" stroke="#3f9d77" stroke-width="2.5"/><text x="178" y="286" font-size="10.5" fill="#475569">D</text>
<line x1="260" y1="282" x2="286" y2="282" stroke="#d9a441" stroke-width="2.4"/><text x="292" y="286" font-size="10.5" fill="#475569">covariant</text>
<line x1="380" y1="282" x2="406" y2="282" stroke="#c4625f" stroke-width="2.4"/><text x="412" y="286" font-size="10.5" fill="#475569">contravariant</text>
</svg>
