<svg xmlns="http://www.w3.org/2000/svg" width="660" height="310" style="background:#f8f9fa;font-family:Georgia,serif"><defs><marker id="arrB" markerWidth="8" markerHeight="8" refX="6" refY="3" orient="auto"><polygon points="0 0,8 3,0 6" fill="#334466"/></marker><marker id="arrP" markerWidth="8" markerHeight="8" refX="6" refY="3" orient="auto"><polygon points="0 0,8 3,0 6" fill="#663366"/></marker><marker id="arrO" markerWidth="8" markerHeight="8" refX="6" refY="3" orient="auto"><polygon points="0 0,8 3,0 6" fill="#885500"/></marker></defs><text x="330" y="26" text-anchor="middle" font-size="15" font-weight="bold" fill="#334466">Битопос: два классификатора</text><rect x="255" y="42" width="150" height="40" rx="10" fill="#334466"/><text x="330" y="67" text-anchor="middle" font-size="14" font-weight="bold" fill="white">Категория E</text><rect x="60" y="155" width="185" height="65" rx="10" fill="#885500"/><text x="152" y="180" text-anchor="middle" font-size="13" font-weight="bold" fill="white">Ω₊ (Положит.)</text><text x="152" y="200" text-anchor="middle" font-size="11" fill="#ffe0a0">true₊: 1 → Ω₊</text><rect x="415" y="155" width="185" height="65" rx="10" fill="#663366"/><text x="507" y="180" text-anchor="middle" font-size="13" font-weight="bold" fill="white">Ω₋ (Отрицат.)</text><text x="507" y="200" text-anchor="middle" font-size="11" fill="#f0d0f0">true₋: 1 → Ω₋</text><line x1="293" y1="82" x2="195" y2="153" stroke="#885500" stroke-width="1.8" marker-end="url(#arrO)"/><text x="228" y="125" text-anchor="middle" font-size="12" fill="#885500">χ⁺: A → Ω₊</text><line x1="367" y1="82" x2="463" y2="153" stroke="#663366" stroke-width="1.8" marker-end="url(#arrP)"/><text x="434" y="125" text-anchor="middle" font-size="12" fill="#663366">χ⁻: A → Ω₋</text><rect x="150" y="248" width="360" height="36" rx="8" fill="#f0f4ff" stroke="#334466" stroke-width="1.3"/><text x="330" y="272" text-anchor="middle" font-size="13" fill="#334466">Закон BiTopos: Ω₋(a) ≤ Ω₊(a) — Bel ≤ Pl</text><text x="330" y="148" text-anchor="middle" font-size="12" fill="#334466">Hom(A,Ω₊) ≅ Sub₊(A)</text></svg>