<svg xmlns="http://www.w3.org/2000/svg" width="500" height="320" viewBox="0 0 500 320"
     font-family="monospace,Arial,sans-serif">

  <!-- Background -->
  <rect width="500" height="320" fill="#ffffff" rx="8"/>

  <!-- Title -->
  <text x="250" y="28" text-anchor="middle" font-size="15" font-weight="bold" fill="#0f172a">Truth Value Lattice &#937;_&#123;Sh(X)&#125;</text>

  <!-- Hasse diagram nodes -->

  <!-- Top: 1 (U = X) -->
  <circle cx="170" cy="80" r="28" fill="#5872c9" stroke="#3a4a96" stroke-width="1.5"/>
  <text x="170" y="76" text-anchor="middle" font-size="13" font-weight="bold" fill="#ffffff">&#8868;</text>
  <text x="170" y="92" text-anchor="middle" font-size="9" fill="#eef1fb">U = X</text>

  <!-- Middle left: V1 -->
  <circle cx="90" cy="175" r="26" fill="#f7f8fa" stroke="#5872c9" stroke-width="1.8"/>
  <text x="90" y="181" text-anchor="middle" font-size="13" font-weight="bold" fill="#5872c9">V&#8321;</text>

  <!-- Middle right: V2 -->
  <circle cx="250" cy="175" r="26" fill="#f7f8fa" stroke="#5872c9" stroke-width="1.8"/>
  <text x="250" y="181" text-anchor="middle" font-size="13" font-weight="bold" fill="#5872c9">V&#8322;</text>

  <!-- Lower: V1 cap V2 -->
  <circle cx="170" cy="255" r="30" fill="#f7f8fa" stroke="#8b6db5" stroke-width="1.8"/>
  <text x="170" y="252" text-anchor="middle" font-size="11" font-weight="bold" fill="#8b6db5">V&#8321;&#8745;V&#8322;</text>
  <text x="170" y="268" text-anchor="middle" font-size="9" fill="#8a93a3">meet</text>

  <!-- Bottom: 0 (empty) -->
  <circle cx="170" cy="310" r="0"/>
  <!-- Actually place bottom below lattice -->

  <!-- Lattice edges -->
  <line x1="148" y1="104" x2="108" y2="151" stroke="#8a93a3" stroke-width="1.5"/>
  <line x1="192" y1="104" x2="232" y2="151" stroke="#8a93a3" stroke-width="1.5"/>
  <line x1="108" y1="199" x2="148" y2="228" stroke="#8a93a3" stroke-width="1.5"/>
  <line x1="232" y1="199" x2="192" y2="228" stroke="#8a93a3" stroke-width="1.5"/>

  <!-- Properties panel -->
  <rect x="300" y="48" width="185" height="180" rx="8" fill="#f7f8fa" stroke="#cbd5e1" stroke-width="1.2"/>
  <text x="392" y="70" text-anchor="middle" font-size="12" font-weight="bold" fill="#0f172a">Operations</text>
  <text x="308" y="92" font-size="11" fill="#0f172a">&#172;U = Int(X \ U)</text>
  <text x="308" y="112" font-size="11" fill="#0f172a">&#172;&#172;U = Int(Cl(U))</text>
  <line x1="308" y1="120" x2="478" y2="120" stroke="#cbd5e1" stroke-width="1"/>
  <text x="308" y="138" font-size="11" fill="#3f9d77">&#172;&#172;U &#8805; U  (always)</text>
  <text x="308" y="158" font-size="10" fill="#3f9d77">&#172;&#172;U = U &#8660; U regular</text>
  <line x1="308" y1="166" x2="478" y2="166" stroke="#cbd5e1" stroke-width="1"/>
  <text x="308" y="184" font-size="11" fill="#d9a441">U &#8744; &#172;U = X ?  No!</text>
  <text x="308" y="202" font-size="10" fill="#8a93a3">fails in general</text>

  <!-- Counterexample box -->
  <rect x="300" y="240" width="185" height="60" rx="8" fill="#f4e7cf" stroke="#d9a441" stroke-width="1.5"/>
  <text x="392" y="258" text-anchor="middle" font-size="10" font-weight="bold" fill="#d9a441">Counterexample</text>
  <text x="308" y="276" font-size="10" fill="#0f172a">U = (-1,0) &#8746; (0,1)</text>
  <text x="308" y="292" font-size="10" fill="#d9a441">&#172;&#172;U = (-1,1) &#8800; U</text>

  <!-- Bottom label -->
  <text x="170" y="308" text-anchor="middle" font-size="10" fill="#8a93a3">Hasse diagram of open sets</text>
</svg>
