<svg xmlns="http://www.w3.org/2000/svg" width="660" height="310" style="background:#f8f9fa;font-family:Georgia,serif"><defs><marker id="arr" markerWidth="8" markerHeight="8" refX="6" refY="3" orient="auto"><polygon points="0 0,8 3,0 6" fill="#334466"/></marker></defs><text x="330" y="26" text-anchor="middle" font-size="15" font-weight="bold" fill="#334466">Карта проекта</text><rect x="22" y="52" width="175" height="60" rx="10" fill="#334466"/><text x="109" y="76" text-anchor="middle" font-size="13" font-weight="bold" fill="white">KanExtensions</text><text x="109" y="96" text-anchor="middle" font-size="11" fill="#b0c8e8">Lan_J, Ran_J</text><rect x="242" y="52" width="175" height="60" rx="10" fill="#885500"/><text x="329" y="76" text-anchor="middle" font-size="13" font-weight="bold" fill="white">SubjectiveModeling</text><text x="329" y="96" text-anchor="middle" font-size="10" fill="#ffe0b0">Pl=Lan_J, Bel=Ran_J</text><rect x="462" y="52" width="175" height="60" rx="10" fill="#663366"/><text x="549" y="76" text-anchor="middle" font-size="13" font-weight="bold" fill="white">Toposes</text><text x="549" y="96" text-anchor="middle" font-size="10" fill="#f0d0f0">Ω, Sh(X), BiTopos</text><rect x="242" y="195" width="175" height="60" rx="10" fill="#336633"/><text x="329" y="219" text-anchor="middle" font-size="13" font-weight="bold" fill="white">Uncertainty</text><text x="329" y="239" text-anchor="middle" font-size="11" fill="#c0f0c0">Giry монада, вероятность</text><line x1="197" y1="82" x2="240" y2="82" stroke="#334466" stroke-width="1.8" marker-end="url(#arr)"/><line x1="417" y1="82" x2="460" y2="82" stroke="#334466" stroke-width="1.8" marker-end="url(#arr)"/><line x1="329" y1="112" x2="329" y2="193" stroke="#336633" stroke-width="1.8" marker-end="url(#arr)"/><rect x="22" y="272" width="616" height="28" rx="6" fill="#e8ecf8" stroke="#334466" stroke-width="1"/><text x="330" y="290" text-anchor="middle" font-size="11" fill="#334466">Ключ: ∀=Ran_π | ∃=Lan_π | f*=Lan_f | f₊=Ran_f | Bel=Ran_J | Pl=Lan_J</text></svg>