<svg xmlns="http://www.w3.org/2000/svg" width="660" height="300" style="background:#f8f9fa;font-family:Georgia,serif"><defs><marker id="arr" markerWidth="8" markerHeight="8" refX="6" refY="3" orient="auto"><polygon points="0 0,8 3,0 6" fill="#334466"/></marker><marker id="arrO" markerWidth="8" markerHeight="8" refX="6" refY="3" orient="auto"><polygon points="0 0,8 3,0 6" fill="#885500"/></marker><marker id="arrG" markerWidth="8" markerHeight="8" refX="6" refY="3" orient="auto"><polygon points="0 0,8 3,0 6" fill="#336633"/></marker><marker id="arrP" markerWidth="8" markerHeight="8" refX="6" refY="3" orient="auto"><polygon points="0 0,8 3,0 6" fill="#663366"/></marker></defs><text x="330" y="28" text-anchor="middle" font-size="15" font-weight="bold" fill="#334466">Три лица топоса</text><rect x="260" y="45" width="140" height="44" rx="10" fill="#334466"/><text x="330" y="72" text-anchor="middle" font-size="15" font-weight="bold" fill="white">ТОПОС</text><rect x="55" y="185" width="165" height="52" rx="10" fill="#885500"/><text x="137" y="205" text-anchor="middle" font-size="13" font-weight="bold" fill="white">Геометрия</text><text x="137" y="223" text-anchor="middle" font-size="11" fill="#ffe0a0">Sh(X), пучки</text><rect x="248" y="205" width="165" height="52" rx="10" fill="#663366"/><text x="330" y="225" text-anchor="middle" font-size="13" font-weight="bold" fill="white">Логика</text><text x="330" y="243" text-anchor="middle" font-size="11" fill="#f0d0f0">Ω, классификатор</text><rect x="440" y="185" width="165" height="52" rx="10" fill="#336633"/><text x="522" y="205" text-anchor="middle" font-size="13" font-weight="bold" fill="white">Типы</text><text x="522" y="223" text-anchor="middle" font-size="11" fill="#c0f0c0">Mitchell–Benabou</text><line x1="293" y1="89" x2="175" y2="183" stroke="#885500" stroke-width="1.8" marker-end="url(#arrO)"/><text x="218" y="146" text-anchor="middle" font-size="10" fill="#885500">Sh(-)</text><line x1="330" y1="89" x2="330" y2="203" stroke="#663366" stroke-width="1.8" marker-end="url(#arrP)"/><text x="348" y="152" font-size="10" fill="#663366">Ω</text><line x1="367" y1="89" x2="476" y2="183" stroke="#336633" stroke-width="1.8" marker-end="url(#arrG)"/><text x="440" y="146" text-anchor="middle" font-size="10" fill="#336633">вн. язык</text><text x="330" y="278" text-anchor="middle" font-size="11" fill="#885500" font-style="italic">Все три взгляда эквивалентны (теорема Seely 1984)</text></svg>