<svg xmlns="http://www.w3.org/2000/svg" width="860" height="380" viewBox="0 0 860 380" font-family="'Segoe UI', Arial, sans-serif">
  <!-- background -->
  <rect width="860" height="380" fill="#ffffff" rx="10"/>

  <!-- title -->
  <text x="430" y="30" text-anchor="middle" font-size="15" font-weight="bold" fill="#3a4a96">Haskell as Internal Language of the Set Topos</text>
  <line x1="80" y1="40" x2="780" y2="40" stroke="#3a4a96" stroke-width="1"/>

  <!-- LEFT COLUMN header: Topos Theory -->
  <rect x="30" y="55" width="230" height="30" rx="6" fill="#3a4a96"/>
  <text x="145" y="75" text-anchor="middle" font-size="13" font-weight="bold" fill="#ffffff">Topos Theory</text>

  <!-- LEFT boxes -->
  <!-- Heyting Algebra -->
  <rect x="30" y="100" width="230" height="44" rx="6" fill="#eef1fb" stroke="#3a4a96" stroke-width="1.5"/>
  <text x="145" y="118" text-anchor="middle" font-size="12" font-weight="bold" fill="#3a4a96">Heyting Algebra</text>
  <text x="145" y="136" text-anchor="middle" font-size="11" fill="#475569">top, bot, meet, join, imp</text>

  <!-- Subobject Classifier Omega -->
  <rect x="30" y="160" width="230" height="44" rx="6" fill="#eef1fb" stroke="#3a4a96" stroke-width="1.5"/>
  <text x="145" y="178" text-anchor="middle" font-size="12" font-weight="bold" fill="#3a4a96">Subobject Classifier Omega</text>
  <text x="145" y="196" text-anchor="middle" font-size="11" fill="#475569">Hom(A, Omega) ~= Sub(A)</text>

  <!-- Presheaves -->
  <rect x="30" y="220" width="230" height="44" rx="6" fill="#eef1fb" stroke="#3a4a96" stroke-width="1.5"/>
  <text x="145" y="238" text-anchor="middle" font-size="12" font-weight="bold" fill="#3a4a96">Presheaves  F: C^op -> Set</text>
  <text x="145" y="256" text-anchor="middle" font-size="11" fill="#475569">contravariant functor on C</text>

  <!-- Geometric Morphism -->
  <rect x="30" y="280" width="230" height="44" rx="6" fill="#eef1fb" stroke="#3a4a96" stroke-width="1.5"/>
  <text x="145" y="298" text-anchor="middle" font-size="12" font-weight="bold" fill="#3a4a96">Geometric Morphism f* -| f*</text>
  <text x="145" y="316" text-anchor="middle" font-size="11" fill="#475569">f* preserves finite limits</text>

  <!-- RIGHT COLUMN header: Haskell -->
  <rect x="600" y="55" width="230" height="30" rx="6" fill="#2f6f54"/>
  <text x="715" y="75" text-anchor="middle" font-size="13" font-weight="bold" fill="#ffffff">Haskell</text>

  <!-- RIGHT boxes -->
  <!-- HeytingAlgebra typeclass -->
  <rect x="600" y="100" width="230" height="44" rx="6" fill="#e9f4ee" stroke="#2f6f54" stroke-width="1.5"/>
  <text x="715" y="118" text-anchor="middle" font-size="12" font-weight="bold" fill="#3a4a96">HeytingAlgebra typeclass</text>
  <text x="715" y="136" text-anchor="middle" font-size="11" fill="#475569">Bool, Unit (Lukasiewicz)</text>

  <!-- a -> Bool / Omega -->
  <rect x="600" y="160" width="230" height="44" rx="6" fill="#e9f4ee" stroke="#2f6f54" stroke-width="1.5"/>
  <text x="715" y="178" text-anchor="middle" font-size="12" font-weight="bold" fill="#3a4a96">a -> Bool  /  type Omega = Bool</text>
  <text x="715" y="196" text-anchor="middle" font-size="11" fill="#475569">characteristic function chi</text>

  <!-- Presheaf newtype -->
  <rect x="600" y="220" width="230" height="44" rx="6" fill="#e9f4ee" stroke="#2f6f54" stroke-width="1.5"/>
  <text x="715" y="238" text-anchor="middle" font-size="12" font-weight="bold" fill="#3a4a96">Functor  (c -> a)</text>
  <text x="715" y="256" text-anchor="middle" font-size="11" fill="#475569">newtype Presheaf c a</text>

  <!-- fmap / traverse -->
  <rect x="600" y="280" width="230" height="44" rx="6" fill="#e9f4ee" stroke="#2f6f54" stroke-width="1.5"/>
  <text x="715" y="298" text-anchor="middle" font-size="12" font-weight="bold" fill="#3a4a96">fmap  /  traverse</text>
  <text x="715" y="316" text-anchor="middle" font-size="11" fill="#475569">Functor, Traversable</text>

  <!-- CENTRAL BOX -->
  <rect x="295" y="165" width="270" height="54" rx="8" fill="#f4e7cf" stroke="#8a6418" stroke-width="2"/>
  <text x="430" y="185" text-anchor="middle" font-size="12" font-weight="bold" fill="#8a6418">Haskell  =  Internal Language</text>
  <text x="430" y="201" text-anchor="middle" font-size="11" fill="#8a6418">of the Set topos  (Bool = Omega)</text>
  <text x="430" y="215" text-anchor="middle" font-size="11" fill="#8a6418">Lens = Mitchell-Benabou type</text>

  <!-- ARROWS left -> center -> right -->
  <!-- Row 1: Heyting Algebra -->
  <line x1="261" y1="122" x2="294" y2="180" stroke="#8a93a3" stroke-width="1.5" marker-end="url(#arr)"/>
  <line x1="566" y1="122" x2="566" y2="122"/>
  <!-- arrow from center to right row1 -->
  <line x1="566" y1="180" x2="599" y2="122" stroke="#8a93a3" stroke-width="1.5" marker-end="url(#arr)"/>

  <!-- Row 2: Subobject Classifier -->
  <line x1="261" y1="182" x2="294" y2="185" stroke="#8a93a3" stroke-width="1.5" marker-end="url(#arr)"/>
  <line x1="566" y1="185" x2="599" y2="182" stroke="#8a93a3" stroke-width="1.5" marker-end="url(#arr)"/>

  <!-- Row 3: Presheaves -->
  <line x1="261" y1="242" x2="294" y2="210" stroke="#8a93a3" stroke-width="1.5" marker-end="url(#arr)"/>
  <line x1="566" y1="210" x2="599" y2="242" stroke="#8a93a3" stroke-width="1.5" marker-end="url(#arr)"/>

  <!-- Row 4: Geometric morphism -->
  <line x1="261" y1="302" x2="430" y2="220" stroke="#8a93a3" stroke-width="1.5" marker-end="url(#arr)"/>
  <line x1="430" y1="220" x2="599" y2="302" stroke="#8a93a3" stroke-width="1.5" marker-end="url(#arr)"/>

  <!-- Lens note at bottom -->
  <rect x="240" y="340" width="380" height="28" rx="6" fill="#efeaf6" stroke="#5f4a86" stroke-width="1.5"/>
  <text x="430" y="358" text-anchor="middle" font-size="11" fill="#5f4a86">Lens s a = forall f. Functor f => (a -> f a) -> s -> f s  [Van Laarhoven / Mitchell-Benabou]</text>

  <!-- arrowhead marker -->
  <defs>
    <marker id="arr" markerWidth="8" markerHeight="8" refX="6" refY="3" orient="auto">
      <path d="M0,0 L0,6 L8,3 z" fill="#8a93a3"/>
    </marker>
  </defs>
</svg>
