<svg xmlns="http://www.w3.org/2000/svg" width="660" height="330" viewBox="0 0 660 330" font-family="monospace,Arial,sans-serif">
<defs>
  <marker id="tid_a" markerWidth="10" markerHeight="7" refX="9" refY="3.5" orient="auto">
    <polygon points="0 0, 10 3.5, 0 7" fill="#3a4a96"/>
  </marker>
</defs>
<rect width="660" height="330" fill="#ffffff"/>
<text x="330" y="30" text-anchor="middle" font-size="15" fill="#0f172a" font-weight="bold">Implication and disjunction as classifying arrows</text>

<!-- ===== IMP ===== -->
<text x="165" y="60" text-anchor="middle" font-size="13" fill="#5872c9" font-weight="bold">Implication  imp = chi(&lt;=)</text>
<text x="70"  y="92"  text-anchor="middle" font-size="13" fill="#0f172a">( &lt;= )</text>
<text x="280" y="92"  text-anchor="middle" font-size="14" fill="#0f172a">1</text>
<text x="55"  y="210" text-anchor="middle" font-size="13" fill="#0f172a">Omega x Omega</text>
<text x="282" y="210" text-anchor="middle" font-size="14" fill="#0f172a">Omega</text>
<line x1="92" y1="87" x2="268" y2="87" stroke="#3a4a96" stroke-width="1.6" marker-end="url(#tid_a)"/>
<text x="180" y="79" text-anchor="middle" font-size="11" fill="#3a4a96">!</text>
<line x1="70" y1="106" x2="70" y2="196" stroke="#5872c9" stroke-width="1.6" marker-end="url(#tid_a)"/>
<polyline points="66,100 70,106 74,100" fill="none" stroke="#5872c9" stroke-width="1.6" stroke-linecap="round" stroke-linejoin="round"/>
<text x="74" y="152" text-anchor="start" font-size="10" fill="#5872c9">incl</text>
<line x1="282" y1="106" x2="282" y2="196" stroke="#3f9d77" stroke-width="1.6" marker-end="url(#tid_a)"/>
<polyline points="278,100 282,106 286,100" fill="none" stroke="#3f9d77" stroke-width="1.6" stroke-linecap="round" stroke-linejoin="round"/>
<text x="288" y="152" text-anchor="start" font-size="11" fill="#3f9d77">true</text>
<line x1="120" y1="205" x2="250" y2="205" stroke="#3a4a96" stroke-width="1.8" marker-end="url(#tid_a)"/>
<text x="185" y="223" text-anchor="middle" font-size="12" fill="#5872c9" font-weight="bold">imp</text>
<rect x="92" y="178" width="12" height="12" fill="none" stroke="#8a93a3" stroke-width="1"/>
<text x="165" y="252" text-anchor="middle" font-size="10" fill="#8a93a3">(&lt;=) = equalizer(and, pi1)</text>
<text x="165" y="268" text-anchor="middle" font-size="10" fill="#8a93a3">= { (x,y) | x /\ y = x }</text>

<line x1="335" y1="48" x2="335" y2="300" stroke="#cbd5e1" stroke-width="1.2"/>

<!-- ===== OR ===== -->
<text x="500" y="60" text-anchor="middle" font-size="13" fill="#8a6418" font-weight="bold">Disjunction  or = chi(im)</text>
<text x="410" y="92"  text-anchor="middle" font-size="13" fill="#0f172a">im</text>
<text x="600" y="92"  text-anchor="middle" font-size="14" fill="#0f172a">1</text>
<text x="395" y="210" text-anchor="middle" font-size="13" fill="#0f172a">Omega x Omega</text>
<text x="600" y="210" text-anchor="middle" font-size="14" fill="#0f172a">Omega</text>
<line x1="425" y1="87" x2="588" y2="87" stroke="#3a4a96" stroke-width="1.6" marker-end="url(#tid_a)"/>
<text x="506" y="79" text-anchor="middle" font-size="11" fill="#3a4a96">!</text>
<line x1="410" y1="106" x2="410" y2="196" stroke="#8a6418" stroke-width="1.6" marker-end="url(#tid_a)"/>
<polyline points="406,100 410,106 414,100" fill="none" stroke="#8a6418" stroke-width="1.6" stroke-linecap="round" stroke-linejoin="round"/>
<text x="414" y="152" text-anchor="start" font-size="10" fill="#8a6418">incl</text>
<line x1="600" y1="106" x2="600" y2="196" stroke="#3f9d77" stroke-width="1.6" marker-end="url(#tid_a)"/>
<polyline points="596,100 600,106 604,100" fill="none" stroke="#3f9d77" stroke-width="1.6" stroke-linecap="round" stroke-linejoin="round"/>
<text x="606" y="152" text-anchor="start" font-size="11" fill="#3f9d77">true</text>
<line x1="455" y1="205" x2="575" y2="205" stroke="#3a4a96" stroke-width="1.8" marker-end="url(#tid_a)"/>
<text x="515" y="223" text-anchor="middle" font-size="12" fill="#8a6418" font-weight="bold">or</text>
<rect x="423" y="178" width="12" height="12" fill="none" stroke="#8a93a3" stroke-width="1"/>
<text x="500" y="252" text-anchor="middle" font-size="10" fill="#8a93a3">im = image of the two truth-lines</text>
<text x="500" y="268" text-anchor="middle" font-size="10" fill="#8a93a3">[ &lt;true,id&gt; , &lt;id,true&gt; ]</text>

<text x="330" y="312" text-anchor="middle" font-size="10" fill="#8a93a3">each connective classifies its defining subobject of Omega x Omega</text>
</svg>
