<svg xmlns="http://www.w3.org/2000/svg" width="720" height="360" style="background:#f8f9fa;font-family:Georgia,serif"><defs><marker id="arr" markerWidth="8" markerHeight="8" refX="6" refY="3" orient="auto"><polygon points="0 0,8 3,0 6" fill="#334466"/></marker><marker id="arrP" markerWidth="8" markerHeight="8" refX="6" refY="3" orient="auto"><polygon points="0 0,8 3,0 6" fill="#663366"/></marker></defs><text x="360" y="28" text-anchor="middle" font-size="15" font-weight="bold" fill="#334466">Аксиомы элементарного топоса</text><rect x="20" y="45" width="200" height="84" rx="10" fill="#dde8ff" stroke="#334466" stroke-width="1.5"/><text x="120" y="68" text-anchor="middle" font-size="13" font-weight="bold" fill="#334466">Акс. 1</text><text x="120" y="88" text-anchor="middle" font-size="12" fill="#334466">Конечные пределы</text><text x="120" y="107" text-anchor="middle" font-size="11" fill="#885500">1, A×B, pullback</text><rect x="260" y="45" width="200" height="84" rx="10" fill="#fff3cc" stroke="#885500" stroke-width="1.5"/><text x="360" y="68" text-anchor="middle" font-size="13" font-weight="bold" fill="#885500">Акс. 2</text><text x="360" y="88" text-anchor="middle" font-size="12" fill="#885500">Степенные объекты</text><text x="360" y="107" text-anchor="middle" font-size="11" fill="#885500">Hom(A×B,C) ≅ Hom(A,C^B)</text><rect x="500" y="45" width="200" height="84" rx="10" fill="#f0e0ff" stroke="#663366" stroke-width="1.5"/><text x="600" y="68" text-anchor="middle" font-size="13" font-weight="bold" fill="#663366">Акс. 3</text><text x="600" y="88" text-anchor="middle" font-size="12" fill="#663366">Класс. подобъектов Ω</text><text x="600" y="107" text-anchor="middle" font-size="11" fill="#663366">Hom(A,Ω) ≅ Sub(A)</text><text x="200" y="164" text-anchor="middle" font-size="13" font-weight="bold" fill="#334466">Pullback (опред. Ω):</text><text x="310" y="208" text-anchor="middle" font-size="14" font-weight="bold" fill="#334466">S</text><text x="480" y="208" text-anchor="middle" font-size="14" font-weight="bold" fill="#334466">1</text><text x="310" y="308" text-anchor="middle" font-size="14" font-weight="bold" fill="#334466">A</text><text x="480" y="308" text-anchor="middle" font-size="14" font-weight="bold" fill="#663366">Ω</text><line x1="323" y1="201" x2="466" y2="201" stroke="#334466" stroke-width="1.5" marker-end="url(#arr)"/><text x="394" y="193" text-anchor="middle" font-size="11" fill="#334466">!_S</text><line x1="310" y1="214" x2="310" y2="294" stroke="#334466" stroke-width="1.5" marker-end="url(#arr)"/><text x="294" y="258" text-anchor="middle" font-size="11" fill="#334466">m</text><line x1="480" y1="214" x2="480" y2="294" stroke="#663366" stroke-width="1.5" marker-end="url(#arrP)"/><text x="496" y="258" text-anchor="middle" font-size="11" fill="#663366">true</text><line x1="323" y1="301" x2="466" y2="301" stroke="#663366" stroke-width="1.5" marker-end="url(#arrP)"/><text x="394" y="319" text-anchor="middle" font-size="11" fill="#663366">χ_m</text><rect x="319" y="210" width="11" height="11" fill="none" stroke="#334466" stroke-width="1.2"/><text x="572" y="174" font-size="12" font-weight="bold" fill="#334466">Примеры:</text><text x="572" y="194" font-size="11" fill="#334466">Set: Ω = {F,T}</text><text x="572" y="214" font-size="11" fill="#334466">Sh(X): Ω = Open(–)</text><text x="572" y="234" font-size="11" fill="#334466">[C,Set]: Ω = Sub</text><text x="572" y="254" font-size="11" fill="#663366">BiTopos: Ω₊ и Ω₋</text></svg>