<svg xmlns="http://www.w3.org/2000/svg" width="560" height="320" font-family="monospace,'JetBrains Mono',Arial,sans-serif">
  <rect width="560" height="320" fill="#ffffff" rx="10"/>
  <text x="280" y="26" text-anchor="middle" font-size="13" font-weight="bold" fill="#334155">Universal&#39;noe svojstvo nachal&#39;noj F-algebry</text>
  <text x="280" y="44" text-anchor="middle" font-size="10" fill="#64748b">Katamorfi zm - edinstvennaya strelka iz (&#956;F, in)</text>

  <!-- Uzly -->
  <!-- F(muF) - verkhnij levyj -->
  <rect x="30" y="70" width="150" height="44" rx="6" fill="#f1f5f9" stroke="#7c3aed" stroke-width="1.5"/>
  <text x="105" y="89" text-anchor="middle" font-size="11" font-weight="bold" fill="#7c3aed">F(&#956;F)</text>
  <text x="105" y="105" text-anchor="middle" font-size="9" fill="#64748b">primenenie funktora</text>

  <!-- muF - verkhnij pravyj -->
  <rect x="370" y="70" width="150" height="44" rx="6" fill="#f1f5f9" stroke="#7c3aed" stroke-width="1.5"/>
  <text x="445" y="89" text-anchor="middle" font-size="11" font-weight="bold" fill="#7c3aed">&#956;F</text>
  <text x="445" y="105" text-anchor="middle" font-size="9" fill="#64748b">nachal&#39;naya algebra</text>

  <!-- F(A) - nizhnij levyj -->
  <rect x="30" y="220" width="150" height="44" rx="6" fill="#f1f5f9" stroke="#059669" stroke-width="1.5"/>
  <text x="105" y="239" text-anchor="middle" font-size="11" fill="#059669">F(A)</text>
  <text x="105" y="255" text-anchor="middle" font-size="9" fill="#64748b">primenenie funktora</text>

  <!-- A - nizhnij pravyj -->
  <rect x="370" y="220" width="150" height="44" rx="6" fill="#f1f5f9" stroke="#059669" stroke-width="1.5"/>
  <text x="445" y="239" text-anchor="middle" font-size="11" fill="#059669">A</text>
  <text x="445" y="255" text-anchor="middle" font-size="9" fill="#64748b">nositel&#39; algebry</text>

  <!-- Strelki -->
  <!-- Verkh: F(muF) -> muF (in) -->
  <line x1="180" y1="92" x2="368" y2="92" stroke="#7c3aed" stroke-width="2" marker-end="url(#arr1)"/>
  <text x="274" y="84" text-anchor="middle" font-size="11" font-weight="bold" fill="#7c3aed">in</text>

  <!-- Nizh: F(A) -> A (alg) -->
  <line x1="180" y1="242" x2="368" y2="242" stroke="#059669" stroke-width="2" marker-end="url(#arr2)"/>
  <text x="274" y="234" text-anchor="middle" font-size="11" font-weight="bold" fill="#059669">alg</text>

  <!-- Levo: F(muF) -> F(A) (F(h)) -->
  <line x1="105" y1="114" x2="105" y2="218" stroke="#2563eb" stroke-width="1.5" marker-end="url(#arr3)"/>
  <text x="75" y="168" text-anchor="middle" font-size="10" fill="#2563eb">F(h)</text>

  <!-- Pravo: muF -> A (h = cata alg) -->
  <line x1="445" y1="114" x2="445" y2="218" stroke="#ea580c" stroke-width="2" stroke-dasharray="8,4" marker-end="url(#arr4)"/>
  <text x="490" y="155" text-anchor="middle" font-size="11" font-weight="bold" fill="#ea580c">h</text>
  <text x="490" y="172" text-anchor="middle" font-size="9" fill="#ea580c">= cata alg</text>
  <text x="490" y="185" text-anchor="middle" font-size="9" fill="#64748b">(edinstvennaya)</text>

  <!-- Zakon -->
  <rect x="20" y="282" width="520" height="28" rx="5" fill="#f1f5f9" stroke="#cbd5e1"/>
  <text x="280" y="295" text-anchor="middle" font-size="10" fill="#334155">Zakon: h . in = alg . fmap h</text>
  <text x="280" y="308" text-anchor="middle" font-size="9" fill="#64748b">cata alg - edinstvennaya strelka delayushchaya kvadrat kommutativnym</text>

  <defs>
    <marker id="arr1" markerWidth="8" markerHeight="8" refX="6" refY="3" orient="auto"><path d="M0,0 L6,3 L0,6 Z" fill="#7c3aed"/></marker>
    <marker id="arr2" markerWidth="8" markerHeight="8" refX="6" refY="3" orient="auto"><path d="M0,0 L6,3 L0,6 Z" fill="#059669"/></marker>
    <marker id="arr3" markerWidth="8" markerHeight="8" refX="6" refY="3" orient="auto"><path d="M0,0 L6,3 L0,6 Z" fill="#2563eb"/></marker>
    <marker id="arr4" markerWidth="8" markerHeight="8" refX="6" refY="3" orient="auto"><path d="M0,0 L6,3 L0,6 Z" fill="#ea580c"/></marker>
  </defs>
</svg>