<svg xmlns="http://www.w3.org/2000/svg" width="680" height="360" font-family="monospace,'JetBrains Mono',Arial,sans-serif">
  <rect width="680" height="360" fill="#0f172a" rx="10"/>
  <text x="340" y="26" text-anchor="middle" font-size="13" font-weight="bold" fill="#e2e8f0">Ierarkhiya skhem rekursii</text>
  <text x="340" y="44" text-anchor="middle" font-size="10" fill="#94a3b8">Kazhdaya posleduyushchaya skhema usilyaet predydushchuyu</text>

  <!-- cata -->
  <rect x="30" y="60" width="120" height="40" rx="5" fill="#172554" stroke="#60a5fa" stroke-width="1.5"/>
  <text x="90" y="78" text-anchor="middle" font-size="11" font-weight="bold" fill="#60a5fa">cata</text>
  <text x="90" y="93" text-anchor="middle" font-size="9" fill="#94a3b8">Algebra</text>

  <!-- para -->
  <rect x="190" y="60" width="120" height="40" rx="5" fill="#172554" stroke="#34d399" stroke-width="1.5"/>
  <text x="250" y="78" text-anchor="middle" font-size="11" font-weight="bold" fill="#34d399">para</text>
  <text x="250" y="93" text-anchor="middle" font-size="9" fill="#94a3b8">RAlgebra</text>

  <!-- ana -->
  <rect x="30" y="140" width="120" height="40" rx="5" fill="#1e293b" stroke="#60a5fa" stroke-width="1.5"/>
  <text x="90" y="158" text-anchor="middle" font-size="11" font-weight="bold" fill="#60a5fa">ana</text>
  <text x="90" y="173" text-anchor="middle" font-size="9" fill="#94a3b8">Coalgebra</text>

  <!-- apo -->
  <rect x="190" y="140" width="120" height="40" rx="5" fill="#1e293b" stroke="#34d399" stroke-width="1.5"/>
  <text x="250" y="158" text-anchor="middle" font-size="11" font-weight="bold" fill="#34d399">apo</text>
  <text x="250" y="173" text-anchor="middle" font-size="9" fill="#94a3b8">RCoalgebra</text>

  <!-- histo -->
  <rect x="350" y="140" width="130" height="40" rx="5" fill="#1e293b" stroke="#a78bfa" stroke-width="1.5"/>
  <text x="415" y="158" text-anchor="middle" font-size="11" font-weight="bold" fill="#a78bfa">histo</text>
  <text x="415" y="173" text-anchor="middle" font-size="9" fill="#94a3b8">CVAlgebra</text>

  <!-- futu -->
  <rect x="510" y="140" width="130" height="40" rx="5" fill="#1e293b" stroke="#a78bfa" stroke-width="1.5"/>
  <text x="575" y="158" text-anchor="middle" font-size="11" font-weight="bold" fill="#a78bfa">futu</text>
  <text x="575" y="173" text-anchor="middle" font-size="9" fill="#94a3b8">CVCoalgebra</text>

  <!-- hylo -->
  <rect x="30" y="230" width="120" height="40" rx="5" fill="#1e293b" stroke="#fb923c" stroke-width="1.5"/>
  <text x="90" y="248" text-anchor="middle" font-size="11" font-weight="bold" fill="#fb923c">hylo</text>
  <text x="90" y="263" text-anchor="middle" font-size="9" fill="#94a3b8">cata . ana</text>

  <!-- chrono -->
  <rect x="415" y="230" width="130" height="40" rx="5" fill="#1e293b" stroke="#fb923c" stroke-width="1.5"/>
  <text x="480" y="248" text-anchor="middle" font-size="11" font-weight="bold" fill="#fb923c">chrono</text>
  <text x="480" y="263" text-anchor="middle" font-size="9" fill="#94a3b8">histo . futu</text>

  <!-- Strelki -->
  <line x1="150" y1="80" x2="188" y2="80" stroke="#334155" stroke-width="1.5" marker-end="url(#sarr)"/>
  <text x="170" y="73" text-anchor="middle" font-size="8" fill="#94a3b8">+ orig.</text>

  <line x1="150" y1="160" x2="188" y2="160" stroke="#334155" stroke-width="1.5" marker-end="url(#sarr)"/>
  <text x="170" y="153" text-anchor="middle" font-size="8" fill="#94a3b8">+ exit</text>

  <line x1="310" y1="160" x2="348" y2="160" stroke="#334155" stroke-width="1.5" marker-end="url(#sarr)"/>
  <text x="330" y="153" text-anchor="middle" font-size="8" fill="#94a3b8">+ hist.</text>

  <line x1="480" y1="160" x2="508" y2="160" stroke="#334155" stroke-width="1.5" marker-end="url(#sarr)"/>
  <text x="495" y="153" text-anchor="middle" font-size="8" fill="#94a3b8">pred.</text>

  <line x1="90" y1="180" x2="90" y2="228" stroke="#334155" stroke-width="1.2" stroke-dasharray="4,3" marker-end="url(#sarr)"/>
  <text x="60" y="208" text-anchor="middle" font-size="8" fill="#94a3b8">comp.</text>

  <line x1="415" y1="180" x2="440" y2="228" stroke="#334155" stroke-width="1.2" stroke-dasharray="4,3" marker-end="url(#sarr)"/>

  <!-- Legenda -->
  <rect x="20" y="295" width="640" height="54" rx="5" fill="#1e293b" stroke="#334155"/>
  <text x="340" y="314" text-anchor="middle" font-size="10" font-weight="bold" fill="#e2e8f0">Gylomorfi zm: hylo alg coalg = cata alg . ana coalg</text>
  <text x="340" y="330" text-anchor="middle" font-size="9" fill="#94a3b8">(s optimizaciej: bez promezhutochnoj struktury)</text>
  <text x="340" y="345" text-anchor="middle" font-size="9" fill="#94a3b8">Razdelyaet rekursiyu i logiku: cata razrushaet, ana stroit strukturu</text>

  <defs>
    <marker id="sarr" markerWidth="6" markerHeight="6" refX="5" refY="3" orient="auto"><path d="M0,0 L5,3 L0,6 Z" fill="#334155"/></marker>
  </defs>
</svg>