<svg xmlns="http://www.w3.org/2000/svg" width="560" height="215" viewBox="0 0 560 215" font-family="system-ui, sans-serif">
  <rect width="560" height="215" fill="#ffffff" rx="8"/>
  <text x="155" y="24" text-anchor="middle" font-size="12" font-weight="700" fill="#2f6f54">f = chi<tspan dy="2" font-size="8">(0,1)</tspan><tspan dy="-2">  (lsc density)</tspan></text>
  <text x="430" y="24" text-anchor="middle" font-size="12" font-weight="700" fill="#3a4a96">d<tspan dy="-4" font-size="8">&#8744;</tspan><tspan dy="4">i</tspan><tspan dy="-4" font-size="8">&#8744;</tspan><tspan dy="4">f = chi</tspan><tspan dy="2" font-size="8">[0,1]</tspan><tspan dy="-2">  (usc envelope)</tspan></text>

  <!-- left panel: open interval indicator -->
  <line x1="60" y1="150" x2="250" y2="150" stroke="#cbd5e1" stroke-width="1.5"/>
  <text x="110" y="168" text-anchor="middle" font-size="10" fill="#8a93a3">0</text>
  <text x="200" y="168" text-anchor="middle" font-size="10" fill="#8a93a3">1</text>
  <line x1="60" y1="150" x2="104" y2="150" stroke="#3f9d77" stroke-width="2.5"/>
  <line x1="206" y1="150" x2="250" y2="150" stroke="#3f9d77" stroke-width="2.5"/>
  <circle cx="110" cy="150" r="4" fill="#3f9d77"/>
  <circle cx="200" cy="150" r="4" fill="#3f9d77"/>
  <line x1="116" y1="90" x2="194" y2="90" stroke="#3f9d77" stroke-width="2.5"/>
  <circle cx="110" cy="90" r="4" fill="#ffffff" stroke="#3f9d77" stroke-width="2"/>
  <circle cx="200" cy="90" r="4" fill="#ffffff" stroke="#3f9d77" stroke-width="2"/>
  <text x="52" y="94" text-anchor="middle" font-size="10" fill="#8a93a3">1</text>

  <line x1="280" y1="40" x2="280" y2="180" stroke="#e2e8f0"/>

  <!-- right panel: usc envelope, closed endpoints (boundary highlighted) -->
  <line x1="335" y1="150" x2="525" y2="150" stroke="#cbd5e1" stroke-width="1.5"/>
  <text x="385" y="168" text-anchor="middle" font-size="10" fill="#8a93a3">0</text>
  <text x="475" y="168" text-anchor="middle" font-size="10" fill="#8a93a3">1</text>
  <line x1="335" y1="150" x2="379" y2="150" stroke="#5872c9" stroke-width="2.5"/>
  <line x1="481" y1="150" x2="525" y2="150" stroke="#5872c9" stroke-width="2.5"/>
  <circle cx="385" cy="150" r="4" fill="#ffffff" stroke="#5872c9" stroke-width="2"/>
  <circle cx="475" cy="150" r="4" fill="#ffffff" stroke="#5872c9" stroke-width="2"/>
  <line x1="391" y1="90" x2="469" y2="90" stroke="#5872c9" stroke-width="2.5"/>
  <circle cx="385" cy="90" r="4.5" fill="#3a4a96"/>
  <circle cx="475" cy="90" r="4.5" fill="#3a4a96"/>
  <text x="327" y="94" text-anchor="middle" font-size="10" fill="#8a93a3">1</text>
  <text x="430" y="72" text-anchor="middle" font-size="9.5" fill="#3a4a96">boundary &#8706; = {0,1} (filled: usc keeps the rim)</text>

  <text x="280" y="196" text-anchor="middle" font-size="10" fill="#8a93a3">i&#8744; &#8867; d&#8744; (Galois):  i&#8744;f &#8804; m &#8660; f &#8804; d&#8744;m;   both densities give the SAME sup-measure on opens &#8212; they differ exactly on &#8706;</text>
</svg>
