<svg xmlns="http://www.w3.org/2000/svg" width="470" height="235" viewBox="0 0 470 235" font-family="system-ui, sans-serif">
  <rect width="470" height="235" fill="#ffffff" rx="8"/>
  <text x="235" y="26" text-anchor="middle" font-size="13" font-weight="700" fill="#0f172a">Bel = &#952; &#8728; Pl &#8728; &#8705;   (one construction, seen twice)</text>
  <rect x="70" y="56" width="58" height="28" rx="7" fill="#fff" stroke="#475569" stroke-width="2"/><text x="99" y="75" text-anchor="middle" font-size="13" fill="#0f172a">P(X)</text>
  <rect x="330" y="56" width="76" height="28" rx="7" fill="#fff" stroke="#475569" stroke-width="2"/><text x="368" y="75" text-anchor="middle" font-size="13" fill="#0f172a">P(X)<tspan dy="-5" font-size="9">op</tspan></text>
  <rect x="72" y="162" width="54" height="28" rx="7" fill="#fff" stroke="#475569" stroke-width="2"/><text x="99" y="181" text-anchor="middle" font-size="13" fill="#0f172a">[0,1]</text>
  <rect x="332" y="162" width="72" height="28" rx="7" fill="#fff" stroke="#475569" stroke-width="2"/><text x="368" y="181" text-anchor="middle" font-size="13" fill="#0f172a">[0,1]<tspan dy="-5" font-size="9">op</tspan></text>
  <line x1="134" y1="70" x2="318" y2="70" stroke="#475569" stroke-width="1.8"/><polygon points="324,70 315,66 315,74" fill="#475569"/><text x="226" y="62" text-anchor="middle" font-size="11" fill="#475569">&#8705;</text>
  <line x1="99" y1="90" x2="99" y2="150" stroke="#3f9d77" stroke-width="2"/><polygon points="99,156 95,147 103,147" fill="#3f9d77"/><text x="76" y="124" text-anchor="middle" font-size="11" font-weight="700" fill="#2f6f54">Bel</text>
  <line x1="368" y1="90" x2="368" y2="150" stroke="#5872c9" stroke-width="2"/><polygon points="368,156 364,147 372,147" fill="#5872c9"/><text x="396" y="124" text-anchor="middle" font-size="11" font-weight="700" fill="#3a4a96">Pl<tspan dy="-4" font-size="8">op</tspan></text>
  <line x1="326" y1="176" x2="138" y2="176" stroke="#475569" stroke-width="1.8"/><polygon points="132,176 141,172 141,180" fill="#475569"/><text x="232" y="168" text-anchor="middle" font-size="11" fill="#475569">&#952;</text>
  <text x="235" y="220" text-anchor="middle" font-size="10" fill="#8a93a3">Bel = Ran (sage), Pl = Lan (indigo): &#952;-conjugate; commutes by uniqueness of the meet-preserving extension (T2c)</text>
</svg>
