<svg xmlns="http://www.w3.org/2000/svg" width="860" height="360" viewBox="0 0 860 360" font-family="monospace,Arial,sans-serif">
  <defs>
    <marker id="arr" markerWidth="10" markerHeight="7" refX="9" refY="3.5" orient="auto">
      <polygon points="0 0, 10 3.5, 0 7" fill="#3a4a96"/>
    </marker>
    <marker id="arrB" markerWidth="10" markerHeight="7" refX="9" refY="3.5" orient="auto">
      <polygon points="0 0, 10 3.5, 0 7" fill="#3a4a96"/>
    </marker>
    <marker id="arrP" markerWidth="10" markerHeight="7" refX="9" refY="3.5" orient="auto">
      <polygon points="0 0, 10 3.5, 0 7" fill="#8b6db5"/>
    </marker>
    <marker id="arrO" markerWidth="10" markerHeight="7" refX="9" refY="3.5" orient="auto">
      <polygon points="0 0, 10 3.5, 0 7" fill="#d9a441"/>
    </marker>
  </defs>

  <!-- Background -->
  <rect width="860" height="360" fill="#ffffff" rx="10" stroke="#cbd5e1" stroke-width="1"/>

  <!-- Title -->
  <text x="430" y="28" text-anchor="middle" font-size="15" font-weight="bold" fill="#0f172a">SubjectiveModeling.ipynb — Dependency Graph</text>

  <!-- === TOP ROW: SOURCE NOTEBOOKS === -->

  <!-- LEFT: KanExtensions.ipynb (blue) -->
  <rect x="30" y="55" width="210" height="70" rx="8" fill="#eef1fb" stroke="#3a4a96" stroke-width="2"/>
  <text x="135" y="82" text-anchor="middle" font-size="13" font-weight="bold" fill="#3a4a96">KanExtensions.ipynb</text>
  <line x1="42" y1="90" x2="228" y2="90" stroke="#3a4a96" stroke-width="0.8" stroke-dasharray="4,3"/>
  <text x="135" y="106" text-anchor="middle" font-size="11" fill="#3a4a96">Lan_J,  Ran_J</text>
  <text x="135" y="120" text-anchor="middle" font-size="11" fill="#3a4a96">Isbell duality</text>

  <!-- CENTER: Toposes.ipynb (purple) -->
  <rect x="325" y="55" width="210" height="70" rx="8" fill="#efeaf6" stroke="#8b6db5" stroke-width="2"/>
  <text x="430" y="82" text-anchor="middle" font-size="13" font-weight="bold" fill="#5f4a86">Toposes.ipynb</text>
  <line x1="337" y1="90" x2="523" y2="90" stroke="#8b6db5" stroke-width="0.8" stroke-dasharray="4,3"/>
  <text x="430" y="106" text-anchor="middle" font-size="11" fill="#5f4a86">[0,1]-Frame,  BiTopos</text>
  <text x="430" y="120" text-anchor="middle" font-size="11" fill="#5f4a86">Omega+, Omega-</text>

  <!-- RIGHT: Uncertainty.ipynb (orange) -->
  <rect x="620" y="55" width="210" height="70" rx="8" fill="#f4e7cf" stroke="#d9a441" stroke-width="2"/>
  <text x="725" y="82" text-anchor="middle" font-size="13" font-weight="bold" fill="#8a6418">Uncertainty.ipynb</text>
  <line x1="632" y1="90" x2="818" y2="90" stroke="#d9a441" stroke-width="0.8" stroke-dasharray="4,3"/>
  <text x="725" y="106" text-anchor="middle" font-size="11" fill="#8a6418">Possibility theory (Pyt'ev)</text>
  <text x="725" y="120" text-anchor="middle" font-size="11" fill="#8a6418">Pi, N;  sup tau = 1  (sec. 9)</text>

  <!-- === ARROWS DOWN TO CENTRAL BOX === -->
  <!-- From KanExtensions center bottom -->
  <line x1="135" y1="125" x2="360" y2="175" stroke="#3a4a96" stroke-width="2" marker-end="url(#arrB)"/>
  <!-- From Toposes center bottom -->
  <line x1="430" y1="125" x2="430" y2="173" stroke="#8b6db5" stroke-width="2" marker-end="url(#arrP)"/>
  <!-- From Uncertainty center bottom -->
  <line x1="725" y1="125" x2="500" y2="175" stroke="#d9a441" stroke-width="2" marker-end="url(#arrO)"/>

  <!-- === CENTRAL BOX: SubjectiveModeling.ipynb === -->
  <rect x="270" y="178" width="320" height="64" rx="10" fill="#e9f4ee" stroke="#3f9d77" stroke-width="3"/>
  <text x="430" y="205" text-anchor="middle" font-size="15" font-weight="bold" fill="#2f6f54">SubjectiveModeling.ipynb</text>
  <text x="430" y="227" text-anchor="middle" font-size="11" fill="#2f6f54">Pl, Bel, tau: X -&gt; [0,1],  Gamma-relativity</text>

  <!-- === ARROWS DOWN TO OUTPUT BOXES === -->
  <!-- Left output -->
  <line x1="340" y1="242" x2="145" y2="283" stroke="#3a4a96" stroke-width="1.8" marker-end="url(#arrB)"/>
  <!-- Center output -->
  <line x1="430" y1="242" x2="430" y2="280" stroke="#8b6db5" stroke-width="1.8" marker-end="url(#arrP)"/>
  <!-- Right output -->
  <line x1="520" y1="242" x2="715" y2="283" stroke="#d9a441" stroke-width="1.8" marker-end="url(#arrO)"/>

  <!-- === BOTTOM ROW: OUTPUT CONCEPTS === -->

  <!-- LEFT output: blue -->
  <rect x="30" y="286" width="230" height="52" rx="7" fill="#eef1fb" stroke="#3a4a96" stroke-width="1.5"/>
  <text x="145" y="309" text-anchor="middle" font-size="12" font-weight="bold" fill="#3a4a96">Pl(E) = Lan_J tau</text>
  <text x="145" y="328" text-anchor="middle" font-size="10" fill="#3a4a96">sup_{x in E} tau(x)</text>

  <!-- CENTER output: purple -->
  <rect x="320" y="286" width="220" height="52" rx="7" fill="#efeaf6" stroke="#8b6db5" stroke-width="1.5"/>
  <text x="430" y="309" text-anchor="middle" font-size="12" font-weight="bold" fill="#5f4a86">(Omega+, Omega-)</text>
  <text x="430" y="328" text-anchor="middle" font-size="10" fill="#5f4a86">= (Pl, Bel)  BiTopos</text>

  <!-- RIGHT output: orange -->
  <rect x="600" y="286" width="230" height="52" rx="7" fill="#f4e7cf" stroke="#d9a441" stroke-width="1.5"/>
  <text x="715" y="308" text-anchor="middle" font-size="11" font-weight="bold" fill="#8a6418">Pi = sup tau,  N = inf tauBar</text>
  <text x="715" y="327" text-anchor="middle" font-size="10" fill="#8a6418">possibility / necessity (sup-norm)</text>
</svg>
