<svg xmlns="http://www.w3.org/2000/svg" width="860" height="520" viewBox="0 0 860 520" font-family="monospace,Arial,sans-serif"><rect width="860" height="520" fill="#ffffff" rx="10"/><text x="430" y="32" text-anchor="middle" font-size="16" font-weight="bold" fill="#475569">Adjunction: F &#8869; G</text><text x="430" y="52" text-anchor="middle" font-size="12" fill="#8a93a3">Hom_D(F a, b) &#8773; Hom_C(a, G b)</text><rect x="30" y="70" width="240" height="320" rx="12" fill="#f7f8fa" stroke="#3a4a96" stroke-width="2"/><text x="150" y="96" text-anchor="middle" font-size="14" font-weight="bold" fill="#5872c9">Category C</text><circle cx="110" cy="150" r="22" fill="#3a4a96" stroke="#3a4a96" stroke-width="1.5"/><text x="110" y="147" text-anchor="middle" font-size="13" font-style="italic" fill="#0f172a">a</text><text x="110" y="160" text-anchor="middle" font-size="9" fill="#3a4a96">object</text><circle cx="200" cy="220" r="22" fill="#3a4a96" stroke="#3a4a96" stroke-width="1.5"/><text x="200" y="217" text-anchor="middle" font-size="13" font-style="italic" fill="#0f172a">a'</text><text x="200" y="230" text-anchor="middle" font-size="9" fill="#3a4a96">object</text><circle cx="120" cy="300" r="22" fill="#3a4a96" stroke="#3a4a96" stroke-width="1.5"/><text x="120" y="297" text-anchor="middle" font-size="13" fill="#0f172a">Ga</text><text x="120" y="310" text-anchor="middle" font-size="9" fill="#3a4a96">= G(Fa)</text><defs><marker id="arB" markerWidth="8" markerHeight="6" refX="7" refY="3" orient="auto"><polygon points="0 0, 8 3, 0 6" fill="#5872c9"/></marker><marker id="arG" markerWidth="8" markerHeight="6" refX="7" refY="3" orient="auto"><polygon points="0 0, 8 3, 0 6" fill="#3f9d77"/></marker><marker id="arR" markerWidth="8" markerHeight="6" refX="7" refY="3" orient="auto"><polygon points="0 0, 8 3, 0 6" fill="#c4625f"/></marker><marker id="arY" markerWidth="8" markerHeight="6" refX="7" refY="3" orient="auto"><polygon points="0 0, 8 3, 0 6" fill="#d9a441"/></marker></defs><line x1="112" y1="172" x2="118" y2="278" stroke="#d9a441" stroke-width="1.5" stroke-dasharray="5,3" marker-end="url(#arY)"/><text x="90" y="240" text-anchor="middle" font-size="10" fill="#d9a441">&#951;</text><text x="70" y="252" text-anchor="middle" font-size="9" fill="#d9a441">unit</text><rect x="590" y="70" width="240" height="320" rx="12" fill="#f7f8fa" stroke="#3f9d77" stroke-width="2"/><text x="710" y="96" text-anchor="middle" font-size="14" font-weight="bold" fill="#3f9d77">Category D</text><circle cx="670" cy="150" r="22" fill="#2f6f54" stroke="#3f9d77" stroke-width="1.5"/><text x="670" y="147" text-anchor="middle" font-size="13" fill="#0f172a">Fa</text><text x="670" y="160" text-anchor="middle" font-size="9" fill="#e9f4ee">= F(a)</text><circle cx="760" cy="220" r="22" fill="#2f6f54" stroke="#3f9d77" stroke-width="1.5"/><text x="760" y="217" text-anchor="middle" font-size="13" font-style="italic" fill="#0f172a">b</text><text x="760" y="230" text-anchor="middle" font-size="9" fill="#e9f4ee">object</text><circle cx="685" cy="300" r="22" fill="#2f6f54" stroke="#3f9d77" stroke-width="1.5"/><text x="685" y="297" text-anchor="middle" font-size="13" fill="#0f172a">FGb</text><text x="685" y="310" text-anchor="middle" font-size="9" fill="#e9f4ee">= F(Gb)</text><line x1="706" y1="290" x2="748" y2="232" stroke="#d9a441" stroke-width="1.5" stroke-dasharray="5,3" marker-end="url(#arY)"/><text x="740" y="268" text-anchor="middle" font-size="10" fill="#d9a441">&#949;</text><text x="760" y="280" text-anchor="middle" font-size="9" fill="#d9a441">counit</text><path d="M 270 140 Q 430 100 590 140" fill="none" stroke="#3f9d77" stroke-width="2.5" marker-end="url(#arG)"/><text x="430" y="112" text-anchor="middle" font-size="14" font-weight="bold" fill="#3f9d77">F</text><text x="430" y="126" text-anchor="middle" font-size="10" fill="#3f9d77">(left adjoint)</text><path d="M 590 260 Q 430 310 270 260" fill="none" stroke="#5872c9" stroke-width="2.5" marker-end="url(#arB)"/><text x="430" y="308" text-anchor="middle" font-size="14" font-weight="bold" fill="#5872c9">G</text><text x="430" y="322" text-anchor="middle" font-size="10" fill="#3a4a96">(right adjoint)</text><rect x="290" y="360" width="280" height="90" rx="8" fill="#f7f8fa" stroke="#8b6db5" stroke-width="2"/><text x="430" y="382" text-anchor="middle" font-size="12" font-weight="bold" fill="#8b6db5">Hom Isomorphism</text><text x="430" y="400" text-anchor="middle" font-size="11" fill="#475569">Hom_D(F a, b)</text><text x="430" y="418" text-anchor="middle" font-size="13" fill="#8b6db5">&#8773;</text><text x="430" y="436" text-anchor="middle" font-size="11" fill="#475569">Hom_C(a, G b)</text><rect x="30" y="410" width="240" height="80" rx="6" fill="#f7f8fa" stroke="#d9a441" stroke-width="1.5"/><text x="150" y="430" text-anchor="middle" font-size="11" font-weight="bold" fill="#d9a441">Triangle Laws</text><text x="150" y="448" text-anchor="middle" font-size="10" fill="#475569">G&#949; &#8728; &#951;G = id_G</text><text x="150" y="464" text-anchor="middle" font-size="10" fill="#475569">&#949;F &#8728; F&#951; = id_F</text><text x="150" y="480" text-anchor="middle" font-size="9" fill="#8a93a3">(unit-counit equations)</text><rect x="590" y="410" width="240" height="80" rx="6" fill="#f7f8fa" stroke="#3f9d77" stroke-width="1.5"/><text x="710" y="430" text-anchor="middle" font-size="11" font-weight="bold" fill="#3f9d77">Haskell (curry)</text><text x="710" y="448" text-anchor="middle" font-size="10" fill="#475569">F = (,) r  (pair with r)</text><text x="710" y="464" text-anchor="middle" font-size="10" fill="#475569">G = r ->  (function from r)</text><text x="710" y="480" text-anchor="middle" font-size="9" fill="#8a93a3">curry :: ((r,a)->b) -> r->a->b</text><text x="430" y="510" text-anchor="middle" font-size="10" fill="#8a93a3">Adjunction: universal mapping property | F &#8869; G iff Hom_D(Fa,b) &#8773; Hom_C(a,Gb) nat. in a,b</text></svg>