<svg xmlns="http://www.w3.org/2000/svg" width="520" height="220" viewBox="0 0 520 220" font-family="system-ui, sans-serif"><rect width="520" height="220" fill="#ffffff" rx="8"/><text x="85" y="40" text-anchor="middle" font-size="12" font-weight="700" fill="#2f6f54">set X</text><rect x="48" y="86" width="74" height="66" rx="10" fill="#fff" stroke="#3f9d77" stroke-width="2"/><circle cx="66" cy="103" r="3" fill="#475569"/><text x="78" y="107" font-size="12" fill="#0f172a">1</text><circle cx="66" cy="121" r="3" fill="#475569"/><text x="78" y="125" font-size="12" fill="#0f172a">2</text><circle cx="66" cy="139" r="3" fill="#475569"/><text x="78" y="143" font-size="12" fill="#0f172a">3</text><line x1="128" y1="119" x2="206" y2="119" stroke="#475569" stroke-width="2"/><polygon points="212,119 203,115 203,123" fill="#475569"/><text x="167" y="111" text-anchor="middle" font-size="12" font-weight="700" fill="#3a4a96">P</text><text x="167" y="134" text-anchor="middle" font-size="9" fill="#8a93a3">2^(-)</text><line x1="354" y1="52" x2="302" y2="80" stroke="#cbd5e1"/><line x1="360" y1="52" x2="360" y2="80" stroke="#cbd5e1"/><line x1="366" y1="52" x2="418" y2="80" stroke="#cbd5e1"/><line x1="290" y1="102" x2="294" y2="132" stroke="#cbd5e1"/><line x1="302" y1="102" x2="354" y2="132" stroke="#cbd5e1"/><line x1="354" y1="102" x2="302" y2="132" stroke="#cbd5e1"/><line x1="366" y1="102" x2="418" y2="132" stroke="#cbd5e1"/><line x1="418" y1="102" x2="366" y2="132" stroke="#cbd5e1"/><line x1="428" y1="102" x2="424" y2="132" stroke="#cbd5e1"/><line x1="300" y1="154" x2="354" y2="178" stroke="#cbd5e1"/><line x1="360" y1="154" x2="360" y2="178" stroke="#cbd5e1"/><line x1="420" y1="154" x2="366" y2="178" stroke="#cbd5e1"/><rect x="334" y="30" width="52" height="22" rx="6" fill="#fff" stroke="#475569" stroke-width="1.5"/><text x="360" y="45" text-anchor="middle" font-size="9" fill="#0f172a">{1,2,3}</text><rect x="272" y="80" width="44" height="22" rx="6" fill="#fff" stroke="#475569" stroke-width="1.5"/><text x="294" y="95" text-anchor="middle" font-size="9" fill="#0f172a">{1,2}</text><rect x="338" y="80" width="44" height="22" rx="6" fill="#fff" stroke="#475569" stroke-width="1.5"/><text x="360" y="95" text-anchor="middle" font-size="9" fill="#0f172a">{1,3}</text><rect x="404" y="80" width="44" height="22" rx="6" fill="#fff" stroke="#475569" stroke-width="1.5"/><text x="426" y="95" text-anchor="middle" font-size="9" fill="#0f172a">{2,3}</text><rect x="274" y="132" width="36" height="22" rx="6" fill="#eef1fb" stroke="#5872c9" stroke-width="2"/><text x="292" y="147" text-anchor="middle" font-size="10" font-weight="700" fill="#3a4a96">{1}</text><rect x="342" y="132" width="36" height="22" rx="6" fill="#eef1fb" stroke="#5872c9" stroke-width="2"/><text x="360" y="147" text-anchor="middle" font-size="10" font-weight="700" fill="#3a4a96">{2}</text><rect x="406" y="132" width="36" height="22" rx="6" fill="#eef1fb" stroke="#5872c9" stroke-width="2"/><text x="424" y="147" text-anchor="middle" font-size="10" font-weight="700" fill="#3a4a96">{3}</text><rect x="342" y="178" width="36" height="22" rx="6" fill="#fff" stroke="#475569" stroke-width="1.5"/><text x="360" y="193" text-anchor="middle" font-size="11" fill="#0f172a">&#8709;</text><text x="320" y="214" text-anchor="middle" font-size="10" fill="#8a93a3">object of Set^op = the Boolean algebra 2^X;  atoms (indigo) = elements of X</text></svg>
