<svg xmlns="http://www.w3.org/2000/svg" width="540" height="175" viewBox="0 0 540 175" font-family="system-ui, sans-serif"><rect width="540" height="175" fill="#ffffff" rx="8"/><text x="140" y="24" text-anchor="middle" font-size="13" font-weight="700" fill="#2f6f54">in Set</text><text x="405" y="24" text-anchor="middle" font-size="13" font-weight="700" fill="#3a4a96">via powerset P</text><rect x="70" y="64" width="36" height="28" rx="8" fill="#fff" stroke="#3f9d77" stroke-width="2"/><text x="88" y="83" text-anchor="middle" font-size="14" fill="#0f172a">a</text><rect x="186" y="64" width="36" height="28" rx="8" fill="#fff" stroke="#3f9d77" stroke-width="2"/><text x="204" y="83" text-anchor="middle" font-size="14" fill="#0f172a">b</text><line x1="106" y1="78" x2="180" y2="78" stroke="#475569" stroke-width="2"/><polygon points="186,78 177,74 177,82" fill="#475569"/><text x="143" y="70" text-anchor="middle" font-size="12" fill="#475569">f</text><rect x="326" y="62" width="52" height="32" rx="8" fill="#fff" stroke="#5872c9" stroke-width="2"/><text x="352" y="83" text-anchor="middle" font-size="13" fill="#0f172a">2<tspan dy="-5" font-size="9">b</tspan></text><rect x="452" y="62" width="52" height="32" rx="8" fill="#fff" stroke="#5872c9" stroke-width="2"/><text x="478" y="83" text-anchor="middle" font-size="13" fill="#0f172a">2<tspan dy="-5" font-size="9">a</tspan></text><line x1="378" y1="78" x2="446" y2="78" stroke="#475569" stroke-width="2"/><polygon points="452,78 443,74 443,82" fill="#475569"/><text x="412" y="70" text-anchor="middle" font-size="12" fill="#475569">f<tspan dy="-4" font-size="9">-1</tspan></text><line x1="270" y1="44" x2="270" y2="128" stroke="#e2e8f0"/><text x="270" y="158" text-anchor="middle" font-size="10" fill="#8a93a3">P contravariant:  (f : a &#8594; b)  &#8614;  (f^-1 : 2^b &#8594; 2^a)  = preimage</text></svg>
