<svg xmlns="http://www.w3.org/2000/svg" width="560" height="250" viewBox="0 0 560 250" font-family="system-ui, sans-serif"><rect width="560" height="250" fill="#ffffff" rx="8"/><text x="135" y="22" text-anchor="middle" font-size="11" font-weight="700" fill="#2f6f54">opens O(X): Heyting</text><line x1="130" y1="58" x2="130" y2="80" stroke="#cbd5e1"/><line x1="130" y1="100" x2="130" y2="122" stroke="#cbd5e1"/><line x1="130" y1="142" x2="130" y2="164" stroke="#cbd5e1"/><rect x="104" y="38" width="52" height="20" rx="5" fill="#fff" stroke="#475569" stroke-width="1.5"/><text x="130" y="52" text-anchor="middle" font-size="9" fill="#0f172a">{1,2,3}</text><rect x="108" y="80" width="44" height="20" rx="5" fill="#fff" stroke="#475569" stroke-width="1.5"/><text x="130" y="94" text-anchor="middle" font-size="9" fill="#0f172a">{2,3}</text><rect x="114" y="122" width="32" height="20" rx="5" fill="#fff" stroke="#475569" stroke-width="1.5"/><text x="130" y="136" text-anchor="middle" font-size="9" fill="#0f172a">{3}</text><rect x="114" y="164" width="32" height="20" rx="5" fill="#fff" stroke="#475569" stroke-width="1.5"/><text x="130" y="178" text-anchor="middle" font-size="10" fill="#0f172a">&#8709;</text><text x="135" y="212" text-anchor="middle" font-size="10" fill="#8a93a3">a&#8594;b, &#172;a;  a&#8743;&#172;a = &#8869;</text><line x1="280" y1="30" x2="280" y2="225" stroke="#e2e8f0"/><text x="425" y="22" text-anchor="middle" font-size="11" font-weight="700" fill="#3a4a96">closeds C(X): co-Heyting</text><line x1="420" y1="58" x2="420" y2="80" stroke="#cbd5e1"/><line x1="420" y1="100" x2="420" y2="122" stroke="#cbd5e1"/><line x1="420" y1="142" x2="420" y2="164" stroke="#cbd5e1"/><rect x="394" y="38" width="52" height="20" rx="5" fill="#fff" stroke="#475569" stroke-width="1.5"/><text x="420" y="52" text-anchor="middle" font-size="9" fill="#0f172a">{1,2,3}</text><rect x="398" y="80" width="44" height="20" rx="5" fill="#fff" stroke="#475569" stroke-width="1.5"/><text x="420" y="94" text-anchor="middle" font-size="9" fill="#0f172a">{1,2}</text><rect x="404" y="122" width="32" height="20" rx="5" fill="#eef1fb" stroke="#5872c9" stroke-width="2"/><text x="420" y="136" text-anchor="middle" font-size="9" font-weight="700" fill="#3a4a96">{1}</text><rect x="404" y="164" width="32" height="20" rx="5" fill="#fff" stroke="#475569" stroke-width="1.5"/><text x="420" y="178" text-anchor="middle" font-size="10" fill="#0f172a">&#8709;</text><text x="425" y="212" text-anchor="middle" font-size="10" fill="#8a93a3">a&#8722;b, ~a, &#8706;a;  &#8706;a &#8800; &#8869;</text><line x1="40" y1="232" x2="520" y2="232" stroke="#e2e8f0"/><text x="280" y="246" text-anchor="middle" font-size="10" fill="#8a93a3">opens = Heyting  &#183;  closeds = co-Heyting  (order reversed)</text></svg>
