<svg xmlns="http://www.w3.org/2000/svg" width="600" height="255" viewBox="0 0 600 255" font-family="system-ui, sans-serif"><rect width="600" height="255" fill="#ffffff" rx="8"/><text x="150" y="22" text-anchor="middle" font-size="10.5" font-weight="700" fill="#2f6f54">Set: subsets 2^X (distributive)</text><line x1="146" y1="52" x2="110" y2="76" stroke="#cbd5e1"/><line x1="150" y1="52" x2="150" y2="76" stroke="#cbd5e1"/><line x1="154" y1="52" x2="190" y2="76" stroke="#cbd5e1"/><line x1="100" y1="96" x2="102" y2="120" stroke="#cbd5e1"/><line x1="110" y1="96" x2="146" y2="120" stroke="#cbd5e1"/><line x1="146" y1="96" x2="110" y2="120" stroke="#cbd5e1"/><line x1="154" y1="96" x2="190" y2="120" stroke="#cbd5e1"/><line x1="190" y1="96" x2="154" y2="120" stroke="#cbd5e1"/><line x1="198" y1="96" x2="196" y2="120" stroke="#cbd5e1"/><line x1="106" y1="140" x2="146" y2="164" stroke="#cbd5e1"/><line x1="150" y1="140" x2="150" y2="164" stroke="#cbd5e1"/><line x1="192" y1="140" x2="154" y2="164" stroke="#cbd5e1"/><rect x="128" y="32" width="44" height="20" rx="5" fill="#fff" stroke="#475569" stroke-width="1.5"/><text x="150" y="46" text-anchor="middle" font-size="8" fill="#0f172a">{1,2,3}</text><rect x="86" y="76" width="40" height="20" rx="5" fill="#fff" stroke="#475569" stroke-width="1.5"/><text x="106" y="90" text-anchor="middle" font-size="8" fill="#0f172a">{1,2}</text><rect x="130" y="76" width="40" height="20" rx="5" fill="#fff" stroke="#475569" stroke-width="1.5"/><text x="150" y="90" text-anchor="middle" font-size="8" fill="#0f172a">{1,3}</text><rect x="174" y="76" width="40" height="20" rx="5" fill="#fff" stroke="#475569" stroke-width="1.5"/><text x="194" y="90" text-anchor="middle" font-size="8" fill="#0f172a">{2,3}</text><rect x="88" y="120" width="32" height="20" rx="5" fill="#fff" stroke="#475569" stroke-width="1.5"/><text x="104" y="134" text-anchor="middle" font-size="8" fill="#0f172a">{1}</text><rect x="134" y="120" width="32" height="20" rx="5" fill="#fff" stroke="#475569" stroke-width="1.5"/><text x="150" y="134" text-anchor="middle" font-size="8" fill="#0f172a">{2}</text><rect x="178" y="120" width="32" height="20" rx="5" fill="#fff" stroke="#475569" stroke-width="1.5"/><text x="194" y="134" text-anchor="middle" font-size="8" fill="#0f172a">{3}</text><rect x="134" y="164" width="32" height="20" rx="5" fill="#fff" stroke="#475569" stroke-width="1.5"/><text x="150" y="178" text-anchor="middle" font-size="10" fill="#0f172a">&#8709;</text><line x1="290" y1="40" x2="290" y2="215" stroke="#e2e8f0"/><text x="450" y="22" text-anchor="middle" font-size="10.5" font-weight="700" fill="#3a4a96">Set^op: partitions = M3 (non-distrib.)</text><line x1="450" y1="188" x2="395" y2="140" stroke="#cbd5e1"/><line x1="460" y1="188" x2="460" y2="140" stroke="#cbd5e1"/><line x1="470" y1="188" x2="525" y2="140" stroke="#cbd5e1"/><line x1="395" y1="118" x2="450" y2="70" stroke="#cbd5e1"/><line x1="460" y1="118" x2="460" y2="70" stroke="#cbd5e1"/><line x1="525" y1="118" x2="470" y2="70" stroke="#cbd5e1"/><rect x="429" y="48" width="62" height="22" rx="6" fill="#fff" stroke="#475569" stroke-width="1.5"/><text x="460" y="63" text-anchor="middle" font-size="9" fill="#0f172a">123</text><rect x="360" y="118" width="56" height="22" rx="6" fill="#eef1fb" stroke="#5872c9" stroke-width="2"/><text x="388" y="133" text-anchor="middle" font-size="9" font-weight="700" fill="#3a4a96">12|3</text><rect x="432" y="118" width="56" height="22" rx="6" fill="#eef1fb" stroke="#5872c9" stroke-width="2"/><text x="460" y="133" text-anchor="middle" font-size="9" font-weight="700" fill="#3a4a96">13|2</text><rect x="504" y="118" width="56" height="22" rx="6" fill="#eef1fb" stroke="#5872c9" stroke-width="2"/><text x="532" y="133" text-anchor="middle" font-size="9" font-weight="700" fill="#3a4a96">23|1</text><rect x="429" y="188" width="62" height="22" rx="6" fill="#fff" stroke="#475569" stroke-width="1.5"/><text x="460" y="203" text-anchor="middle" font-size="9" fill="#0f172a">1|2|3</text><text x="460" y="234" text-anchor="middle" font-size="9.5" fill="#8a93a3">a&#8743;(b&#8744;c) = a   &#8800;   &#8869; = (a&#8743;b)&#8744;(a&#8743;c)</text></svg>
