<svg xmlns="http://www.w3.org/2000/svg" width="880" height="480" viewBox="0 0 880 480" font-family="monospace,Arial,sans-serif">
<rect width="880" height="480" fill="#ffffff" rx="8"/>
<defs>
  <marker id="arr" markerWidth="8" markerHeight="8" refX="6" refY="3" orient="auto">
    <path d="M0,0 L0,6 L8,3 z" fill="#94a3b8"/>
  </marker>
  <marker id="arrD" markerWidth="8" markerHeight="8" refX="6" refY="3" orient="auto">
    <path d="M0,0 L0,6 L8,3 z" fill="#64748b"/>
  </marker>
</defs>

<!-- Title -->
<text x="440" y="28" text-anchor="middle" font-size="16" font-weight="bold" fill="#334155">Functor Hierarchy in Haskell</text>

<!-- Row 1: Contravariant | Functor | Bifunctor -->
<rect x="360" y="50" width="160" height="50" rx="8" fill="#dbeafe" stroke="#1d4ed8" stroke-width="2"/>
<text x="440" y="68" text-anchor="middle" font-size="13" font-weight="bold" fill="#1e40af">Functor</text>
<text x="440" y="84" text-anchor="middle" font-size="10" fill="#94a3b8">fmap :: (a-&gt;b) -&gt; f a -&gt; f b</text>

<rect x="30" y="50" width="160" height="50" rx="8" fill="#f5f3ff" stroke="#a855f7" stroke-width="2"/>
<text x="110" y="68" text-anchor="middle" font-size="13" font-weight="bold" fill="#9333ea">Contravariant</text>
<text x="110" y="84" text-anchor="middle" font-size="10" fill="#94a3b8">contramap</text>

<rect x="690" y="50" width="160" height="50" rx="8" fill="#f5f3ff" stroke="#be185d" stroke-width="2"/>
<text x="770" y="68" text-anchor="middle" font-size="13" font-weight="bold" fill="#be185d">Bifunctor</text>
<text x="770" y="84" text-anchor="middle" font-size="10" fill="#94a3b8">bimap</text>

<!-- Row 2: Invariant | Applicative | Profunctor -->
<rect x="360" y="160" width="160" height="50" rx="8" fill="#d1fae5" stroke="#22c55e" stroke-width="2"/>
<text x="440" y="178" text-anchor="middle" font-size="13" font-weight="bold" fill="#15803d">Applicative</text>
<text x="440" y="194" text-anchor="middle" font-size="10" fill="#94a3b8">(&lt;*&gt;) :: f(a-&gt;b) -&gt; f a -&gt; f b</text>

<rect x="30" y="160" width="160" height="50" rx="8" fill="#f5f3ff" stroke="#a855f7" stroke-width="2"/>
<text x="110" y="178" text-anchor="middle" font-size="13" font-weight="bold" fill="#9333ea">Invariant</text>
<text x="110" y="194" text-anchor="middle" font-size="10" fill="#94a3b8">invmap</text>

<rect x="690" y="160" width="160" height="50" rx="8" fill="#eff6ff" stroke="#0e7490" stroke-width="2"/>
<text x="770" y="178" text-anchor="middle" font-size="13" font-weight="bold" fill="#0891b2">Profunctor</text>
<text x="770" y="194" text-anchor="middle" font-size="10" fill="#94a3b8">dimap</text>

<!-- Row 3: Alternative | Monad | Selective -->
<rect x="360" y="270" width="160" height="50" rx="8" fill="#fef3c7" stroke="#b45309" stroke-width="2"/>
<text x="440" y="288" text-anchor="middle" font-size="13" font-weight="bold" fill="#92400e">Monad</text>
<text x="440" y="304" text-anchor="middle" font-size="10" fill="#94a3b8">(&gt;&gt;=) :: m a -&gt; (a-&gt;m b) -&gt; m b</text>

<rect x="30" y="270" width="160" height="50" rx="8" fill="#eef2ff" stroke="#818cf8" stroke-width="2"/>
<text x="110" y="288" text-anchor="middle" font-size="13" font-weight="bold" fill="#6366f1">Alternative</text>
<text x="110" y="304" text-anchor="middle" font-size="10" fill="#94a3b8">(&lt;|&gt;) :: f a -&gt; f a -&gt; f a</text>

<rect x="690" y="270" width="160" height="50" rx="8" fill="#eff6ff" stroke="#0e7490" stroke-width="2"/>
<text x="770" y="288" text-anchor="middle" font-size="13" font-weight="bold" fill="#0891b2">Selective</text>
<text x="770" y="304" text-anchor="middle" font-size="10" fill="#94a3b8">select :: f(Either a b)</text>

<!-- Row 4: MonadPlus -->
<rect x="360" y="380" width="160" height="50" rx="8" fill="#fef3c7" stroke="#c2410c" stroke-width="2"/>
<text x="440" y="398" text-anchor="middle" font-size="13" font-weight="bold" fill="#ea580c">MonadPlus</text>
<text x="440" y="414" text-anchor="middle" font-size="10" fill="#94a3b8">mzero, mplus</text>

<!-- Arrows: vertical main chain -->
<line x1="440" y1="100" x2="440" y2="160" stroke="#94a3b8" stroke-width="2" marker-end="url(#arr)"/>
<line x1="440" y1="210" x2="440" y2="270" stroke="#94a3b8" stroke-width="2" marker-end="url(#arr)"/>
<line x1="440" y1="320" x2="440" y2="380" stroke="#94a3b8" stroke-width="2" marker-end="url(#arr)"/>

<!-- Arrows: dashed side connections -->
<line x1="360" y1="75" x2="190" y2="75" stroke="#64748b" stroke-width="1.5" stroke-dasharray="5,3" marker-end="url(#arrD)"/>
<line x1="520" y1="75" x2="690" y2="75" stroke="#64748b" stroke-width="1.5" stroke-dasharray="5,3" marker-end="url(#arrD)"/>
<line x1="110" y1="100" x2="110" y2="160" stroke="#64748b" stroke-width="1.5" stroke-dasharray="5,3" marker-end="url(#arrD)"/>
<line x1="770" y1="100" x2="770" y2="160" stroke="#64748b" stroke-width="1.5" stroke-dasharray="5,3" marker-end="url(#arrD)"/>
<line x1="360" y1="185" x2="190" y2="295" stroke="#64748b" stroke-width="1.5" marker-end="url(#arrD)"/>
<line x1="520" y1="185" x2="690" y2="295" stroke="#64748b" stroke-width="1.5" marker-end="url(#arrD)"/>

<!-- Footer -->
<rect x="30" y="445" width="820" height="25" rx="4" fill="#f1f5f9" stroke="#cbd5e1" stroke-width="1"/>
<text x="440" y="462" text-anchor="middle" font-size="10" fill="#94a3b8">solid = subclass / dashed = related concept</text>
</svg>
